<svg version="1.1" id="Layer_1" xmlns="http://www.w3.org/2000/svg" xmlns:xlink="http://www.w3.org/1999/xlink" x="0px" y="0px"
	 width="100%" viewBox="0 0 1024 1024" enable-background="new 0 0 1024 1024" xml:space="preserve">
<path fill="#000000" opacity="1.000000" stroke="none" 
	d="
M217.999939,1023.311523 
	C161.173431,1023.331482 104.846931,1023.351562 48.520435,1023.370056 
	C39.961292,1023.372864 39.714211,1023.211426 39.851795,1014.751526 
	C40.011372,1004.939575 40.430859,995.131592 40.558285,985.319519 
	C40.597740,982.281250 41.927509,981.104004 44.759556,981.107910 
	C47.092358,981.111145 49.425240,981.044373 51.758064,981.045776 
	C91.086632,981.069519 130.416168,980.929382 169.743591,981.156494 
	C345.050079,982.168823 520.357727,981.351379 695.664551,981.591553 
	C702.426941,981.600830 709.189392,981.592773 716.880981,981.592773 
	C714.459839,969.751160 712.307251,959.544495 710.292847,949.310608 
	C704.118530,917.942749 698.010132,886.561951 691.838501,855.193542 
	C691.077698,851.326416 691.564514,847.762573 692.793701,843.969604 
	C697.932373,828.112305 700.727600,811.655457 704.689819,795.493164 
	C717.373047,743.756653 729.961853,691.996643 742.463196,640.215881 
	C753.676208,593.771362 764.640991,547.266907 775.871521,500.826630 
	C786.276733,457.799072 796.984131,414.844574 807.386169,371.816193 
	C820.567383,317.291473 833.576233,262.725067 846.655945,208.175781 
	C853.721313,178.709381 860.789062,149.243515 867.827271,119.770615 
	C868.586365,116.591949 870.104553,113.943703 872.426880,111.639534 
	C883.871460,100.284264 897.725647,93.296135 913.616150,92.148926 
	C952.611755,89.333618 986.273560,102.170006 1014.703857,128.900528 
	C1023.055420,136.752792 1026.058228,146.255432 1023.413269,157.466797 
	C1018.407471,178.685272 1013.432861,199.911194 1008.379395,221.118347 
	C1001.086792,251.722473 993.761047,282.318756 986.403503,312.907318 
	C972.935059,368.901550 959.420776,424.884705 945.950256,480.878387 
	C938.594727,511.453491 931.324707,542.049194 923.954773,572.620789 
	C909.289612,633.454041 894.621338,694.286682 879.878296,755.101074 
	C870.115417,795.372253 860.937927,835.787292 850.284119,875.840454 
	C849.551208,878.595764 848.519470,881.077148 846.660706,883.374023 
	C812.182434,925.978577 780.027771,970.368225 746.692749,1013.851929 
	C741.587952,1020.510864 736.116882,1023.578918 727.439880,1023.565613 
	C557.793518,1023.305786 388.146667,1023.338379 217.999939,1023.311523 
M860.993042,683.723633 
	C861.187500,683.086487 861.418152,682.457825 861.571289,681.810913 
	C875.713196,622.059082 889.314758,562.170593 904.385254,502.654022 
	C907.877380,488.862823 903.102600,481.276825 893.394958,474.094879 
	C891.387024,472.609344 889.435791,471.011688 887.289307,469.754425 
	C867.243896,458.013153 846.554810,454.918945 824.894104,465.253418 
	C821.194702,467.018433 819.111023,469.629089 818.143616,473.820770 
	C808.712830,514.685181 799.083130,555.503784 789.501160,596.333252 
	C771.553040,672.811951 753.574951,749.283752 735.726990,825.785828 
	C734.931335,829.196106 733.416382,832.665771 734.205017,836.733398 
	C765.321899,833.353699 793.291199,841.328125 818.910400,859.594910 
	C819.663818,856.996277 820.236389,855.282959 820.656372,853.533081 
	C825.898499,831.692383 831.150757,809.854126 836.336487,788.000061 
	C844.519165,753.516479 852.653320,719.021301 860.993042,683.723633 
M958.606201,273.222504 
	C961.865967,259.465118 965.127441,245.708145 968.385010,231.950211 
	C973.981934,208.312225 979.555664,184.668686 985.196960,161.041275 
	C985.933594,157.955948 986.208191,155.340683 983.269348,153.007065 
	C959.936279,134.478653 934.035461,127.330948 904.650574,134.661713 
	C899.200256,136.021423 896.451538,138.742096 895.167236,144.504745 
	C888.436584,174.704132 881.244019,204.800812 874.178528,234.925323 
	C861.297546,289.844452 848.356445,344.749512 835.582642,399.693542 
	C834.748779,403.280457 833.173645,406.875610 833.679932,411.122864 
	C866.425110,402.422852 895.083008,409.925690 920.652832,432.533936 
	C933.380310,379.152405 945.910706,326.597321 958.606201,273.222504 
M743.546448,936.018066 
	C743.718445,936.831848 743.946167,937.638489 744.052246,938.460815 
	C744.392944,941.102295 744.325623,944.228149 747.847168,944.596680 
	C751.980469,945.029297 756.371643,946.567200 759.731873,942.130371 
	C775.597839,921.180725 791.525085,900.276855 807.564392,879.459778 
	C809.841431,876.504333 809.605042,874.751404 806.631592,872.618347 
	C784.805969,856.962463 760.725403,850.584473 734.067078,854.856873 
	C727.867493,855.850525 727.794800,856.244995 728.995056,862.309814 
	C733.802002,886.598755 738.596130,910.890198 743.546448,936.018066 
M901.154663,439.341797 
	C880.923950,425.045166 859.147705,420.831390 835.517578,429.524963 
	C827.338989,432.533875 825.426758,435.935791 826.007263,445.344849 
	C858.531677,436.078766 886.909912,444.300201 911.767822,466.482269 
	C916.731506,455.744568 916.457275,453.702332 908.854065,446.017761 
	C906.637939,443.777954 904.112000,441.844604 901.154663,439.341797 
z"/>
</svg>