<svg version="1.1" id="Layer_1" xmlns="http://www.w3.org/2000/svg" xmlns:xlink="http://www.w3.org/1999/xlink" x="0px" y="0px"
	 width="100%" viewBox="0 0 1024 1024" enable-background="new 0 0 1024 1024" xml:space="preserve">
<path fill="#000000" opacity="1.000000" stroke="none" 
	d="
M601.835205,770.975586 
	C472.382935,770.996277 343.407440,771.015808 214.431915,771.034485 
	C212.265671,771.034790 210.099396,771.027893 207.933182,771.015991 
	C200.014999,770.972595 197.529984,767.474670 199.795151,759.817566 
	C200.535507,757.314880 202.440720,757.728760 204.198227,757.587219 
	C213.018143,756.877258 221.839172,757.495972 230.660873,757.504150 
	C352.637604,757.617859 474.614471,757.610046 596.591309,757.612000 
	C598.221436,757.612061 599.927490,757.939697 602.112549,756.659790 
	C600.921387,750.095642 599.762085,743.282166 598.439941,736.500366 
	C594.332520,715.432190 590.216736,694.365356 585.973572,673.324280 
	C585.101624,669.000122 586.449951,665.180298 587.448303,661.128845 
	C593.260681,637.539856 598.854980,613.897217 604.560852,590.281860 
	C625.430542,503.906494 646.322815,417.536652 667.190125,331.160767 
	C674.536194,300.753174 682.003845,270.373108 689.026978,239.890793 
	C690.623169,232.962708 694.481750,228.708786 700.420471,225.767273 
	C711.598999,220.230392 723.418213,220.685196 735.153992,222.871277 
	C748.453125,225.348587 760.438965,231.083771 771.131714,239.438507 
	C777.752502,244.611679 780.240234,250.548615 778.068665,259.406677 
	C759.723267,334.239105 741.774963,409.168884 723.739807,484.077271 
	C707.924622,549.765076 692.107605,615.452576 676.447998,681.177551 
	C675.273010,686.109314 672.718872,689.891479 669.757568,693.749146 
	C651.804382,717.136597 633.870789,740.540649 616.169617,764.118530 
	C612.520142,768.979614 608.464783,771.777527 601.835205,770.975586 
M694.926270,394.514801 
	C685.523987,392.557037 676.093262,391.990112 666.739929,394.596680 
	C662.660828,395.733429 659.432190,397.621613 658.242676,402.577332 
	C639.057678,482.504150 619.678040,562.384277 600.408691,642.290894 
	C599.065674,647.860168 597.232910,653.366699 596.795105,659.618652 
	C623.179077,655.901794 646.471069,663.175110 667.766235,677.430542 
	C669.554810,675.726929 669.598572,673.811279 670.018616,672.070435 
	C675.481995,649.427002 680.903687,626.773438 686.363098,604.128967 
	C701.024719,543.315979 715.673035,482.499847 730.433838,421.711029 
	C731.322937,418.049500 730.727234,415.412811 728.064392,412.751099 
	C718.970215,403.660828 708.068604,397.937988 694.926270,394.514801 
M698.084534,238.784332 
	C687.064575,284.118835 676.044556,329.453339 664.809387,375.672821 
	C692.270691,370.415314 716.040833,375.476074 735.849915,394.215302 
	C737.464844,392.760681 737.579163,391.228363 737.926331,389.786224 
	C748.713684,344.982025 759.493286,300.175934 770.318909,255.380997 
	C771.056702,252.328186 770.648315,249.810501 768.116150,247.770447 
	C752.002625,234.788483 733.904541,227.917740 712.998413,230.497833 
	C707.403564,231.188309 701.880981,232.937668 698.084534,238.784332 
M605.483459,723.132874 
	C606.618835,728.671082 607.829956,734.195312 608.856506,739.753601 
	C609.342896,742.387024 610.693542,743.969910 613.298523,744.437195 
	C616.002075,744.922302 618.425903,744.983826 620.424927,742.345032 
	C634.611450,723.618835 648.877502,704.952576 663.197937,686.328552 
	C664.931580,684.073853 664.676086,682.665161 662.479675,680.990906 
	C657.930664,677.523132 652.938599,674.837036 647.718567,672.648682 
	C632.786133,666.388428 617.424683,662.329834 601.042114,665.127258 
	C595.094666,666.142700 594.580078,667.277283 595.771118,673.319763 
	C598.987793,689.638916 602.160461,705.966614 605.483459,723.132874 
M674.132629,387.391907 
	C696.929626,385.535858 716.015137,393.922455 732.658447,408.919556 
	C736.392883,403.830231 733.693542,400.221802 730.267395,397.091431 
	C712.574402,380.925781 691.872803,376.225830 668.657349,381.082886 
	C663.739929,382.111694 661.666870,384.868439 661.986938,390.021881 
	C665.886047,389.276672 669.404236,387.547546 674.132629,387.391907 
z"/>
</svg>