<svg version="1.1" id="Layer_1" xmlns="http://www.w3.org/2000/svg" xmlns:xlink="http://www.w3.org/1999/xlink" x="0px" y="0px"
	 width="100%" viewBox="0 0 1024 1024" enable-background="new 0 0 1024 1024" xml:space="preserve">
<path fill="#000000" opacity="1.000000" stroke="none" 
	d="
M821.531372,1.000000 
	C823.204956,3.126260 823.186279,5.449168 823.182495,7.799487 
	C823.148804,28.632353 823.152466,49.465279 823.130127,70.298172 
	C823.121643,78.190109 823.703674,79.024643 831.587280,78.582291 
	C849.078003,77.600861 866.572632,78.364258 884.063354,78.142105 
	C893.262695,78.025261 893.281128,78.149216 893.281372,87.147278 
	C893.289429,397.142212 893.294312,707.137146 893.297363,1017.132080 
	C893.297424,1023.981995 893.108459,1024.114380 886.323608,1024.114746 
	C681.660828,1024.125244 476.997986,1024.128784 272.335236,1024.260010 
	C267.496033,1024.263184 265.813782,1022.750671 265.847626,1018.020996 
	C265.978882,999.690002 265.738190,981.355530 265.975464,963.026672 
	C266.036896,958.281799 264.345337,957.080994 259.893311,957.113708 
	C237.228333,957.280396 214.561142,957.252930 191.895386,957.148743 
	C184.695267,957.115662 183.380463,958.427856 183.440262,948.655212 
	C183.727798,901.668640 183.578598,854.679260 183.579224,807.690918 
	C183.582535,556.695007 183.593094,305.699097 183.564285,54.703201 
	C183.562592,39.884426 183.239151,25.065691 183.066971,10.246920 
	C183.034027,7.411300 183.023209,4.576932 183.910812,1.407691 
	C257.354218,1.000000 330.708466,1.000000 404.913818,1.138094 
	C406.920532,1.387127 408.076141,1.594825 409.231750,1.594999 
	C449.013672,1.600971 488.795593,1.593485 528.577515,1.552214 
	C530.051880,1.550685 531.525818,1.192158 533.000000,0.999999 
	C541.020935,1.000000 549.041809,1.000000 557.911194,1.147729 
	C568.513489,1.898245 578.265808,2.344052 588.000000,1.000000 
	C591.030579,1.000000 594.061218,1.000000 597.928955,1.136566 
	C607.848877,1.667332 616.933289,2.212804 626.000000,1.000000 
	C691.020874,1.000000 756.041809,1.000000 821.531372,1.000000 
M782.854248,357.500000 
	C782.729919,257.171051 782.610962,156.842117 782.470154,56.513199 
	C782.460144,49.367596 782.231506,49.193657 775.182129,49.193371 
	C594.355225,49.186108 413.528320,49.182209 232.701416,49.183010 
	C226.124146,49.183041 226.130234,49.207958 226.130463,55.924992 
	C226.140060,339.748688 226.148529,623.572388 226.156708,907.396057 
	C226.157013,917.764282 225.276825,916.736023 235.609558,916.738159 
	C415.436859,916.774658 595.264160,916.786621 775.091431,916.803772 
	C782.623230,916.804504 782.643677,916.803955 782.646729,908.981323 
	C782.718872,725.487549 782.786194,541.993774 782.854248,357.500000 
M444.500000,986.041748 
	C459.666168,986.041748 474.832367,986.041809 489.998535,986.041687 
	C610.328491,986.040527 730.658508,986.038086 850.988464,986.040527 
	C859.891663,986.040710 859.877930,986.056946 859.879456,976.996887 
	C859.912537,776.502502 859.966064,576.008179 859.976257,375.513824 
	C859.980469,292.182861 859.894409,208.851898 859.844727,125.520943 
	C859.840576,118.638954 859.616699,118.353409 852.917236,118.418465 
	C846.422058,118.481529 839.929321,118.801224 833.434143,118.857971 
	C821.779419,118.959808 823.091858,118.268196 823.091675,129.035172 
	C823.087341,402.194031 823.121216,675.352905 823.150085,948.511780 
	C823.151001,956.908630 823.159546,956.911865 814.532715,957.109802 
	C812.700195,957.151855 810.866943,957.181580 809.033997,957.181702 
	C646.538513,957.193176 484.043060,957.201111 321.547577,957.209839 
	C317.047729,957.210083 312.544525,957.322876 308.049103,957.183716 
	C304.661255,957.078918 303.220093,958.367615 303.330719,961.872131 
	C303.509399,967.532654 303.384247,973.203552 303.347107,978.869812 
	C303.300415,985.995972 303.282898,986.002014 310.503723,986.004333 
	C354.835815,986.018494 399.167908,986.029663 444.500000,986.041748 
M579.033142,6.125567 
	C573.361816,5.843629 567.714539,5.913226 562.149109,7.244134 
	C559.982544,7.762247 558.648315,8.806500 558.660583,11.339350 
	C558.670105,13.304219 557.725830,15.593138 560.275085,16.492023 
	C569.149109,19.621140 578.055603,22.497787 587.148438,16.995079 
	C589.171875,15.770512 589.546265,14.603534 589.094055,12.152086 
	C588.066101,6.579509 583.432861,7.433855 579.033142,6.125567 
z"/>
<path fill="#000000" opacity="1.000000" stroke="none" 
	d="
M358.701721,820.668091 
	C350.024902,834.658264 341.549133,848.345947 333.198547,861.831482 
	C330.169495,861.168640 329.522095,859.061462 328.483429,857.447205 
	C314.058228,835.029419 299.723694,812.553040 285.247375,790.168396 
	C283.479492,787.434631 283.275360,785.298523 285.044312,782.459473 
	C299.493134,759.269958 313.806335,735.995972 328.189575,712.765503 
	C328.866547,711.672119 329.520752,710.419495 331.372528,710.092957 
	C334.251587,711.971497 335.561005,715.352600 337.398010,718.197266 
	C350.955383,739.192017 364.316406,760.313599 377.892487,781.296082 
	C379.888031,784.380249 380.008240,786.710632 377.973663,789.849182 
	C371.449738,799.913147 365.236145,810.178284 358.701721,820.668091 
z"/>
<path fill="#000000" opacity="1.000000" stroke="none" 
	d="
M368.123962,197.052368 
	C355.593964,217.283859 343.251740,237.203918 331.068054,256.868164 
	C328.078033,256.553619 327.558136,254.544617 326.618286,253.084473 
	C312.373810,230.954727 298.253937,208.744110 283.881805,186.697876 
	C281.347137,182.809784 281.311218,179.919769 283.817139,175.948273 
	C297.860016,153.692291 311.613342,131.253586 325.459381,108.873451 
	C326.329987,107.466240 327.130798,106.010597 328.625031,105.236031 
	C330.901520,105.633881 331.500977,107.564392 332.448242,109.037529 
	C346.772156,131.314133 361.007568,153.647858 375.400116,175.879883 
	C377.565369,179.224487 378.050568,181.899994 375.448151,185.304047 
	C372.731262,188.857849 370.663391,192.907852 368.123962,197.052368 
z"/>
<path fill="#000000" opacity="1.000000" stroke="none" 
	d="
M687.234375,124.807892 
	C698.746826,142.773560 710.062500,160.437363 721.449341,178.055191 
	C722.857422,180.233932 723.183105,181.978363 721.674072,184.395294 
	C707.126587,207.695068 692.712463,231.078094 678.245789,254.428391 
	C677.478333,255.667221 676.801697,257.044220 675.022827,257.714417 
	C672.051514,254.962082 670.351929,251.312820 668.224426,248.027557 
	C655.282715,228.043381 642.580811,207.902298 629.476990,188.025772 
	C626.556335,183.595444 626.698059,180.369888 629.474426,175.972107 
	C643.426880,153.870453 657.054871,131.564011 670.804932,109.334450 
	C671.584656,108.073807 672.278931,106.704803 674.588684,105.932526 
	C679.496399,111.396469 682.752686,118.323502 687.234375,124.807892 
z"/>
<path fill="#000000" opacity="1.000000" stroke="none" 
	d="
M667.116333,847.833679 
	C655.211914,829.316956 643.621033,811.027466 631.714905,792.945618 
	C628.987549,788.803589 628.607849,785.704651 631.398254,781.304688 
	C645.490479,759.082947 659.219910,736.631226 673.104004,714.277222 
	C673.951416,712.912842 674.507690,711.177673 676.466125,710.818237 
	C678.129761,711.521423 678.825745,713.108948 679.708130,714.482422 
	C693.932007,736.622742 708.047729,758.833374 722.419250,780.877258 
	C724.958984,784.772766 725.011902,787.642822 722.499207,791.631104 
	C708.651489,813.610840 695.113525,835.785645 681.446838,857.879578 
	C680.421387,859.537170 679.219727,861.085876 677.452820,863.609619 
	C673.759155,857.971741 670.537292,853.054016 667.116333,847.833679 
z"/>
</svg>