<?xml version="1.0" encoding="UTF-8"?>
<!DOCTYPE svg PUBLIC "-//W3C//DTD SVG 1.1//EN" "http://www.w3.org/Graphics/SVG/1.1/DTD/svg11.dtd">
<svg xmlns="http://www.w3.org/2000/svg" version="1.1" width="2040px" height="2040px" style="shape-rendering:geometricPrecision; text-rendering:geometricPrecision; image-rendering:optimizeQuality; fill-rule:evenodd; clip-rule:evenodd" xmlns:xlink="http://www.w3.org/1999/xlink">
<g><path style="opacity:1" fill="#fefefe" d="M -0.5,-0.5 C 679.5,-0.5 1359.5,-0.5 2039.5,-0.5C 2039.5,679.5 2039.5,1359.5 2039.5,2039.5C 1359.5,2039.5 679.5,2039.5 -0.5,2039.5C -0.5,1359.5 -0.5,679.5 -0.5,-0.5 Z"/></g>
<g><path style="opacity:1" fill="#030303" d="M 1502.5,1603.5 C 1236.46,1603.83 970.46,1603.5 704.5,1602.5C 704.5,1583.5 704.5,1564.5 704.5,1545.5C 684.167,1545.5 663.833,1545.5 643.5,1545.5C 643.5,1137.83 643.5,730.167 643.5,322.5C 909.5,322.5 1175.5,322.5 1441.5,322.5C 1441.5,342.167 1441.5,361.833 1441.5,381.5C 1461.83,381.5 1482.17,381.5 1502.5,381.5C 1502.5,788.833 1502.5,1196.17 1502.5,1603.5 Z"/></g>
<g><path style="opacity:1" fill="#6a6a6a" d="M 1424.5,340.5 C 1424.5,340.833 1424.5,341.167 1424.5,341.5C 1170.5,341.5 916.5,341.5 662.5,341.5C 662.167,737.334 662.5,1133 663.5,1528.5C 916.999,1529.5 1170.67,1529.83 1424.5,1529.5C 1170.33,1530.5 916.001,1530.83 661.5,1530.5C 661.5,1133.83 661.5,737.167 661.5,340.5C 915.833,340.5 1170.17,340.5 1424.5,340.5 Z"/></g>
<g><path style="opacity:1" fill="#c8c8c8" d="M 1424.5,341.5 C 1424.83,737.334 1424.5,1133 1423.5,1528.5C 1423.83,1133 1423.5,737.666 1422.5,342.5C 1169.5,342.5 916.5,342.5 663.5,342.5C 663.5,737.5 663.5,1132.5 663.5,1527.5C 663.5,1527.83 663.5,1528.17 663.5,1528.5C 662.5,1133 662.167,737.334 662.5,341.5C 916.5,341.5 1170.5,341.5 1424.5,341.5 Z"/></g>
<g><path style="opacity:1" fill="#fefefe" d="M 1422.5,342.5 C 1422.5,737.5 1422.5,1132.5 1422.5,1527.5C 1169.5,1527.5 916.5,1527.5 663.5,1527.5C 663.5,1132.5 663.5,737.5 663.5,342.5C 916.5,342.5 1169.5,342.5 1422.5,342.5 Z"/></g>
<g><path style="opacity:1" fill="#eeeeee" d="M 1422.5,342.5 C 1423.5,737.666 1423.83,1133 1423.5,1528.5C 1170.17,1528.5 916.833,1528.5 663.5,1528.5C 663.5,1528.17 663.5,1527.83 663.5,1527.5C 916.5,1527.5 1169.5,1527.5 1422.5,1527.5C 1422.5,1132.5 1422.5,737.5 1422.5,342.5 Z"/></g>
<g><path style="opacity:1" fill="#2d2d2d" d="M 1424.5,341.5 C 1424.5,341.167 1424.5,340.833 1424.5,340.5C 1425.83,538.332 1426.5,736.499 1426.5,935C 1426.5,1133.33 1426.17,1331.5 1425.5,1529.5C 1425.83,1133.33 1425.5,737.333 1424.5,341.5 Z"/></g>
<g><path style="opacity:1" fill="#fefefe" d="M 1442.5,401.5 C 1456.17,401.5 1469.83,401.5 1483.5,401.5C 1483.5,796.5 1483.5,1191.5 1483.5,1586.5C 1230.5,1586.5 977.5,1586.5 724.5,1586.5C 724.5,1572.83 724.5,1559.17 724.5,1545.5C 963.5,1545.5 1202.5,1545.5 1441.5,1545.5C 1442.5,1164.33 1442.83,783 1442.5,401.5 Z"/></g>
<g><path style="opacity:1" fill="#c7c7c7" d="M 1442.5,401.5 C 1456.66,400.504 1470.99,400.171 1485.5,400.5C 1485.83,796.334 1485.5,1192 1484.5,1587.5C 1484.83,1192 1484.5,796.666 1483.5,401.5C 1469.83,401.5 1456.17,401.5 1442.5,401.5 Z"/></g>
<g><path style="opacity:1" fill="#ededed" d="M 1483.5,401.5 C 1484.5,796.666 1484.83,1192 1484.5,1587.5C 1231.17,1587.5 977.833,1587.5 724.5,1587.5C 723.504,1573.68 723.171,1559.68 723.5,1545.5C 723.833,1545.5 724.167,1545.5 724.5,1545.5C 724.5,1559.17 724.5,1572.83 724.5,1586.5C 977.5,1586.5 1230.5,1586.5 1483.5,1586.5C 1483.5,1191.5 1483.5,796.5 1483.5,401.5 Z"/></g>
<g><path style="opacity:1" fill="#acacac" d="M 1485.5,400.5 C 1470.99,400.171 1456.66,400.504 1442.5,401.5C 1442.83,783 1442.5,1164.33 1441.5,1545.5C 1441.5,1163.5 1441.5,781.5 1441.5,399.5C 1456.34,399.171 1471.01,399.504 1485.5,400.5 Z"/></g>
<g><path style="opacity:1" fill="#020202" d="M 802.5,419.5 C 804.017,419.511 805.184,420.177 806,421.5C 827.68,454.863 848.846,488.529 869.5,522.5C 848.39,557.07 827.057,591.403 805.5,625.5C 782.893,591.726 760.893,557.559 739.5,523C 757.784,491.596 776.95,460.762 797,430.5C 798.655,426.697 800.489,423.03 802.5,419.5 Z"/></g>
<g><path style="opacity:1" fill="#020202" d="M 1274.5,420.5 C 1276.37,420.859 1277.87,421.859 1279,423.5C 1293.61,447.102 1308.61,470.435 1324,493.5C 1330.1,503.368 1335.93,513.368 1341.5,523.5C 1320.42,558.001 1299.08,592.334 1277.5,626.5C 1254.89,592.726 1232.89,558.559 1211.5,524C 1232.63,489.577 1253.63,455.077 1274.5,420.5 Z"/></g>
<g><path style="opacity:1" fill="#020202" d="M 806.5,1246.5 C 808.55,1248.24 810.383,1250.24 812,1252.5C 831.919,1284.67 852.085,1316.67 872.5,1348.5C 851.669,1383.5 830.336,1418.17 808.5,1452.5C 785.927,1418.75 763.927,1384.58 742.5,1350C 763.462,1315.24 784.795,1280.74 806.5,1246.5 Z"/></g>
<g><path style="opacity:1" fill="#020202" d="M 1277.5,1247.5 C 1279.02,1247.51 1280.18,1248.18 1281,1249.5C 1302.4,1282.72 1323.57,1316.06 1344.5,1349.5C 1323.68,1384.46 1302.35,1419.13 1280.5,1453.5C 1257.93,1419.75 1235.93,1385.58 1214.5,1351C 1235.64,1316.54 1256.64,1282.04 1277.5,1247.5 Z"/></g>
<g><path style="opacity:1" fill="#9c9c9c" d="M 1424.5,341.5 C 1425.5,737.333 1425.83,1133.33 1425.5,1529.5C 1425.17,1529.5 1424.83,1529.5 1424.5,1529.5C 1170.67,1529.83 916.999,1529.5 663.5,1528.5C 916.833,1528.5 1170.17,1528.5 1423.5,1528.5C 1424.5,1133 1424.83,737.334 1424.5,341.5 Z"/></g>
<g><path style="opacity:1" fill="#616161" d="M 723.5,1545.5 C 723.171,1559.68 723.504,1573.68 724.5,1587.5C 977.999,1588.5 1231.67,1588.83 1485.5,1588.5C 1231.33,1589.5 977.001,1589.83 722.5,1589.5C 722.171,1574.66 722.504,1559.99 723.5,1545.5 Z"/></g>
<g><path style="opacity:1" fill="#9b9b9b" d="M 1485.5,400.5 C 1486.83,796.5 1486.83,1192.5 1485.5,1588.5C 1231.67,1588.83 977.999,1588.5 724.5,1587.5C 977.833,1587.5 1231.17,1587.5 1484.5,1587.5C 1485.5,1192 1485.83,796.334 1485.5,400.5 Z"/></g>
<g><path style="opacity:1" fill="#111111" d="M 704.5,1602.5 C 970.46,1603.5 1236.46,1603.83 1502.5,1603.5C 1369.67,1604.17 1236.67,1604.5 1103.5,1604.5C 970.165,1604.5 837.165,1603.83 704.5,1602.5 Z"/></g>
</svg>
