<svg version="1.1" id="Layer_1" xmlns="http://www.w3.org/2000/svg" xmlns:xlink="http://www.w3.org/1999/xlink" x="0px" y="0px"
	 width="100%" viewBox="0 0 1024 1024" enable-background="new 0 0 1024 1024" xml:space="preserve">
<path fill="#000000" opacity="1.000000" stroke="none" 
	d="
M440.587158,798.593872 
	C331.028412,771.116516 254.340652,705.442505 210.305450,602.131836 
	C190.997498,556.833557 183.760025,508.968170 186.999893,459.905701 
	C192.058990,383.293549 220.144638,315.985291 272.062500,259.221710 
	C324.356262,202.047104 389.241333,167.460754 465.816833,156.223221 
	C540.678528,145.237213 611.496094,158.676804 677.114929,196.683334 
	C740.170471,233.205215 785.904785,285.435638 814.723816,352.305237 
	C827.380676,381.673065 835.082947,412.402588 838.500977,444.275787 
	C844.278015,498.148071 837.443054,550.270081 817.443054,600.567993 
	C798.537659,648.113098 769.954407,689.004028 731.803223,723.184814 
	C686.934875,763.383667 634.924683,789.388123 575.856873,800.821106 
	C530.847900,809.532898 485.800781,808.785706 440.587158,798.593872 
M759.261475,286.216583 
	C734.065369,254.323776 703.910889,228.163788 668.524780,208.143799 
	C599.489685,169.086563 525.771973,157.791626 448.447266,173.853180 
	C378.245056,188.435287 319.457123,223.706436 273.802063,279.130768 
	C209.277878,357.461853 187.469971,447.335846 207.955933,546.358521 
	C223.577530,621.868408 264.125458,682.672729 325.298309,729.645020 
	C327.348206,731.218933 329.552094,732.592346 331.588074,733.993164 
	C332.978424,732.522461 332.589294,731.293274 332.579590,730.188171 
	C332.328308,701.520630 333.903046,672.963196 337.677734,644.536499 
	C341.015015,619.403870 345.900696,594.618591 355.160431,570.912659 
	C361.386230,554.973816 369.166382,539.923035 382.147491,528.210083 
	C391.430176,519.834167 402.102203,515.204285 414.831787,515.638062 
	C426.961639,516.051514 437.446747,520.811279 447.204559,527.483398 
	C458.872314,535.461426 469.791229,544.580139 483.103210,549.971069 
	C493.561249,554.206238 504.335541,557.302734 515.619446,556.344543 
	C533.484375,554.827393 549.342224,547.796204 563.687622,537.107422 
	C570.890076,531.740845 578.023560,526.253174 586.053223,522.072021 
	C606.679321,511.331726 626.034912,513.631653 643.241577,529.181885 
	C652.155884,537.237915 658.541687,547.184692 663.592896,557.975281 
	C681.555237,596.347046 686.970947,637.521423 690.227417,679.119568 
	C691.604736,696.713074 692.101013,714.364624 692.172363,732.019958 
	C692.176819,733.125854 691.918701,734.413574 693.514832,735.229675 
	C694.510620,734.636536 695.696350,734.054138 696.746704,733.286560 
	C724.965149,712.665649 749.437378,688.294128 769.408081,659.592224 
	C816.099426,592.487305 833.765808,518.056458 823.391968,437.258759 
	C816.216858,381.375610 794.536926,331.182922 759.261475,286.216583 
M505.984375,773.427246 
	C519.331543,774.125916 532.671082,773.440002 545.823425,771.448914 
	C593.973328,764.159851 638.794861,747.383850 680.919312,723.117798 
	C683.774963,721.472839 684.893127,719.535156 684.709045,716.321106 
	C684.004333,704.023682 683.543274,691.712036 682.820679,679.415771 
	C681.009583,648.596863 676.695374,618.180603 667.737488,588.546997 
	C662.401733,570.895752 655.582764,553.932739 643.486206,539.662964 
	C633.413757,527.780884 621.036377,520.934326 604.879089,523.306458 
	C594.523743,524.826782 585.652527,529.726868 577.592896,536.083923 
	C566.276123,545.010193 554.328491,552.875000 540.761719,557.863953 
	C530.269714,561.722229 519.468811,564.613525 508.085358,563.540222 
	C487.931854,561.640076 470.289429,553.524109 454.210419,541.575928 
	C449.399811,538.001221 444.688110,534.242676 439.605957,531.092957 
	C417.470123,517.374084 397.230255,520.479126 380.481293,540.321228 
	C368.309784,554.740540 361.589600,571.987366 356.316101,589.804443 
	C345.324707,626.939819 341.475403,665.121704 340.280884,703.644470 
	C339.814362,718.689453 339.968079,718.746216 353.319458,725.964355 
	C400.807526,751.637878 450.518036,770.210327 505.984375,773.427246 
M516.499939,777.351379 
	C503.486542,777.729858 490.512665,777.131470 477.682098,774.930542 
	C429.888458,766.731995 385.296478,749.841309 343.585602,725.200806 
	C342.562927,724.596741 341.664032,723.208618 339.808105,724.316101 
	C339.808105,727.825989 340.129974,731.513733 339.716553,735.117126 
	C339.312195,738.641785 340.525452,740.694702 343.513916,742.393921 
	C349.300598,745.684082 354.825806,749.436829 360.633545,752.686646 
	C398.939240,774.120544 439.894409,786.963257 483.660797,791.103394 
	C508.676636,793.469788 533.576843,792.990356 558.368469,789.386108 
	C600.416992,783.273071 639.681763,769.209717 675.994385,747.022522 
	C685.284668,741.346069 686.730835,737.997437 683.885254,727.074951 
	C682.601257,726.750000 681.687317,727.576477 680.711853,728.148682 
	C663.432373,738.285400 645.400208,746.885071 626.675964,753.954529 
	C591.478271,767.243347 555.652039,777.771240 516.499939,777.351379 
z"/>
<path fill="#000000" opacity="1.000000" stroke="none" 
	d="
M453.609375,464.489563 
	C418.429443,443.862823 397.692200,413.552551 392.008057,373.693115 
	C382.436798,306.575226 432.134552,243.126831 499.213959,235.883713 
	C564.141357,228.872971 622.587585,272.078857 633.967285,336.485931 
	C645.927368,404.177643 600.239441,467.007080 534.099915,478.226532 
	C505.942719,483.002930 479.069397,478.568390 453.609375,464.489563 
M629.712524,362.360291 
	C629.656860,355.872620 629.728394,349.414062 628.916687,342.919800 
	C620.956848,279.234192 562.983093,234.251892 498.831207,242.134491 
	C430.689392,250.507355 384.255341,316.688568 399.751190,383.350555 
	C414.394958,446.346771 475.644775,484.978149 539.026123,471.193848 
	C589.584290,460.198334 628.699890,413.660004 629.712524,362.360291 
z"/>
</svg>