<svg version="1.1" id="Layer_1" xmlns="http://www.w3.org/2000/svg" xmlns:xlink="http://www.w3.org/1999/xlink" x="0px" y="0px"
	 width="100%" viewBox="0 0 1024 1024" enable-background="new 0 0 1024 1024" xml:space="preserve">
<path fill="#000000" opacity="1.000000" stroke="none" 
	d="
M443.256927,209.626221 
	C477.235321,227.456406 498.482086,254.512222 503.414001,292.513397 
	C507.737427,325.826324 496.841217,354.179016 471.447968,376.610138 
	C470.088898,377.810699 468.732330,379.014130 467.449860,380.149567 
	C467.798248,381.821198 469.195465,381.855499 470.153290,382.319733 
	C476.197021,385.249176 480.111786,389.892883 480.139679,396.676880 
	C480.168549,403.701630 476.107697,409.801239 469.881927,411.282013 
	C458.357056,414.023102 458.360443,422.790649 457.378693,431.118347 
	C454.771362,453.234894 456.392944,475.275391 459.090973,497.303040 
	C464.166046,538.738037 473.587524,579.136658 487.329834,618.538147 
	C488.919617,623.096191 490.692383,627.591125 492.417145,632.101196 
	C493.145264,634.005188 493.937469,635.773987 496.540863,635.734863 
	C498.916016,635.699158 499.547119,634.025269 500.324127,632.352234 
	C508.847198,614.000244 514.557007,594.693909 519.548828,575.163269 
	C524.823975,554.523987 528.590698,533.567749 530.418762,512.364868 
	C531.629700,498.319672 532.243652,484.152527 529.696655,470.084686 
	C528.924133,465.818024 527.466003,462.823792 522.843506,461.407593 
	C517.959595,459.911346 514.572144,456.233063 513.853210,450.993500 
	C513.109497,445.573486 516.037537,441.821289 520.447571,439.053253 
	C520.992126,438.711426 521.473755,438.269409 522.473267,437.495300 
	C503.464447,421.141357 493.993958,400.565399 496.116669,375.715485 
	C497.906525,354.761719 507.308472,337.040314 523.388489,323.453796 
	C557.939575,294.260468 600.369812,299.580963 629.138611,326.142517 
	C656.070068,351.007721 667.238220,403.574432 627.431152,437.673706 
	C630.674255,440.217041 634.385376,442.339172 635.296631,446.851044 
	C636.616760,453.386993 633.092773,459.559265 625.869690,461.796783 
	C622.233154,462.923218 620.856262,464.940643 620.201721,468.375763 
	C617.686279,481.578705 618.021606,494.795013 618.910828,508.143524 
	C620.722412,535.339172 626.231750,561.819519 633.328247,588.019226 
	C636.450562,599.546570 640.088562,610.934998 644.980530,622.542297 
	C650.363159,618.589783 656.123535,616.658813 662.212830,615.672058 
	C664.897888,615.236877 665.422546,612.893188 666.221130,611.003967 
	C675.402466,589.283325 681.424683,566.639954 685.620056,543.486389 
	C688.743774,526.247253 690.598755,508.891479 689.636230,491.337830 
	C689.454773,488.028198 688.992676,484.715668 688.390320,481.454285 
	C688.035034,479.530518 687.297729,477.806366 685.193848,476.718597 
	C673.604492,470.726532 672.852356,465.766510 682.284790,455.926300 
	C666.568604,442.350006 659.629089,424.972321 661.955322,404.393921 
	C663.702820,388.935913 670.703796,375.606537 682.422058,365.442444 
	C709.342407,342.092499 745.106995,342.942413 769.610962,366.614685 
	C791.129639,387.402893 800.226990,427.242035 768.872192,456.096893 
	C768.896423,456.255951 768.862000,456.471771 768.953247,456.566010 
	C777.765198,465.674042 776.913208,471.198547 765.694763,476.632263 
	C761.301758,478.760010 761.876038,482.994019 761.394897,486.549225 
	C759.553223,500.158508 760.730347,513.778259 762.496399,527.277710 
	C766.198059,555.572449 773.077881,583.084351 783.740295,609.624512 
	C785.325500,613.570435 787.348999,615.868652 791.690430,616.583313 
	C806.805054,619.071350 813.874695,630.134338 815.176392,645.864929 
	C815.510254,649.899719 816.049377,651.642273 820.645996,651.865173 
	C827.383850,652.191833 832.330627,656.529053 836.141602,661.777649 
	C842.965454,671.175781 846.394958,681.898438 847.267700,693.412476 
	C847.645325,698.395691 845.919128,700.214355 840.937805,700.097168 
	C808.809753,699.341248 776.684875,698.446228 744.556763,697.691956 
	C736.069092,697.492737 727.573608,697.607605 719.081970,697.645203 
	C718.333679,697.648499 717.587646,698.151733 716.781738,698.444092 
	C716.955933,701.987305 719.109192,704.504761 720.172913,707.424194 
	C722.863098,714.807800 724.516357,722.424377 725.613037,730.188904 
	C726.634888,737.423645 725.061401,739.431091 717.878113,739.294434 
	C682.070251,738.613281 646.263794,737.857117 610.455933,737.176392 
	C603.981140,737.053223 597.502014,737.158813 590.931763,737.158813 
	C590.045898,739.202759 591.692078,740.586304 592.387390,742.112549 
	C598.249695,754.979675 601.726868,768.435974 602.461121,782.556763 
	C602.782104,788.729187 601.245911,790.387634 594.952759,790.273804 
	C566.302673,789.755615 537.654968,789.103210 509.006409,788.497253 
	C508.006866,788.476135 507.007935,788.417725 506.008392,788.408569 
	C453.858063,787.933105 401.717407,786.258301 349.554413,787.343262 
	C311.409943,788.136597 273.257202,788.568237 235.117508,789.532288 
	C223.627563,789.822754 212.137604,790.199219 200.643860,790.299133 
	C194.341629,790.353882 192.189682,788.439941 192.809021,782.235229 
	C194.854736,761.740234 199.883881,742.209778 213.265671,725.814941 
	C220.885941,716.479004 230.406723,710.527161 242.896927,710.783875 
	C247.099350,710.870300 246.751160,708.265137 246.801086,705.503540 
	C247.059860,691.189392 250.053741,677.734985 259.464874,666.384521 
	C266.501190,657.898254 275.644379,652.768738 286.484619,651.895386 
	C293.109131,651.361572 296.264252,648.707825 298.753204,642.716492 
	C315.765778,601.763733 326.882599,559.238525 333.873993,515.530701 
	C337.296875,494.131592 339.521027,472.625885 339.522858,450.969299 
	C339.523712,440.687134 338.723114,430.367798 336.162781,420.270874 
	C335.160187,416.316986 333.530457,413.785706 329.208374,412.969666 
	C325.761169,412.318817 322.795258,410.270172 320.291107,407.698425 
	C313.088776,400.301544 313.781281,390.525299 322.043243,384.330963 
	C323.881165,382.953003 325.932678,381.859924 327.866974,380.647522 
	C327.309204,378.628815 325.589813,378.034454 324.371368,376.980896 
	C302.090485,357.715240 290.595154,333.037933 291.119476,303.916656 
	C292.078766,250.634720 330.997101,210.535156 378.256470,200.751236 
	C400.843048,196.075226 422.271027,199.813461 443.256927,209.626221 
M240.366287,778.627502 
	C244.690582,778.419678 249.012787,778.105347 253.339478,778.020752 
	C289.818207,777.307312 326.296875,776.584412 362.777313,775.968567 
	C391.436371,775.484619 420.085052,775.656494 448.746490,776.532227 
	C479.053680,777.458191 509.395416,777.239746 539.704712,778.118713 
	C555.032837,778.563232 570.361755,778.350220 585.677307,778.918945 
	C590.133362,779.084473 591.401306,777.338867 590.385193,773.271790 
	C589.135010,768.267944 588.154175,763.184692 586.657837,758.256958 
	C583.380005,747.462769 578.692383,737.370239 570.434937,729.373657 
	C564.009949,723.151672 556.508545,720.459473 547.569458,723.013184 
	C539.157837,725.416260 535.614441,722.448730 536.929810,713.570374 
	C537.872681,707.206421 537.620178,700.989990 536.647400,694.703430 
	C533.558899,674.743958 520.899963,662.338501 502.728821,662.483093 
	C495.930969,662.537170 492.404877,659.723816 489.778870,653.915527 
	C473.291473,617.447510 462.523987,579.230286 454.729126,540.104858 
	C448.572906,509.204407 444.525421,478.069519 444.782013,446.469452 
	C444.809509,443.087341 446.280334,439.699554 445.044739,435.942902 
	C413.183502,447.999023 381.649261,448.446014 350.037842,434.310822 
	C350.723999,451.830597 350.776184,468.660217 349.041718,485.391357 
	C346.708740,507.896545 343.215820,530.244934 338.285461,552.348572 
	C330.513641,587.191162 320.579498,621.331055 305.742462,653.919312 
	C303.123871,659.670776 299.637817,662.563354 292.807861,662.517395 
	C278.888214,662.423645 268.666382,669.058105 262.742401,681.840210 
	C257.959503,692.160339 257.454468,703.091187 258.715851,714.133789 
	C259.643585,722.255371 256.103973,725.631714 248.501709,723.249512 
	C240.724747,720.812561 233.615967,722.047485 227.470062,727.406921 
	C212.135849,740.778625 207.736450,759.042664 204.343719,778.632202 
	C216.519318,778.632202 227.957336,778.632202 240.366287,778.627502 
M485.724609,268.724182 
	C469.082550,233.566803 441.579926,212.656296 402.689087,210.496902 
	C362.935730,208.289627 332.754822,226.817429 313.714722,261.312256 
	C297.094849,291.422424 297.562500,322.217590 316.489624,351.760468 
	C323.062225,362.019409 332.039307,369.931183 342.360382,376.349976 
	C345.748474,378.457092 348.743591,380.978241 347.554138,385.570221 
	C346.373566,390.127808 342.578705,390.259827 338.774567,390.391876 
	C335.778503,390.495880 332.770508,390.977539 330.082123,392.375183 
	C325.730194,394.637665 325.527069,397.996429 329.471191,400.851532 
	C331.987671,402.673187 334.992432,403.429352 337.944000,403.494446 
	C342.444580,403.593689 346.482666,404.915070 350.269867,407.074127 
	C372.767853,419.900208 396.639984,420.657562 421.434509,416.051758 
	C436.327759,413.285187 449.059082,404.476501 463.931824,401.924438 
	C464.556152,401.817291 465.139221,401.371796 465.701782,401.020416 
	C467.473328,399.913879 468.880951,398.559937 468.680237,396.224457 
	C468.495544,394.075012 466.928314,393.101654 465.223846,392.339600 
	C461.665009,390.748383 457.890625,390.312653 454.021149,390.259491 
	C451.291473,390.221985 449.203827,388.882629 448.200745,386.289124 
	C447.140900,383.548920 447.715302,381.000549 449.789703,378.933990 
	C450.840332,377.887360 452.073151,376.982117 453.338562,376.198578 
	C491.406525,352.625977 502.012695,307.923035 485.724609,268.724182 
M533.016479,558.179565 
	C532.790955,558.979797 532.522217,559.770569 532.346252,560.581543 
	C526.655151,586.813049 519.398987,612.549622 508.366486,637.111755 
	C506.419281,641.446960 504.466003,645.606201 498.910034,645.830261 
	C499.242645,650.685059 502.348969,651.323792 505.924377,651.588135 
	C524.215515,652.940674 536.528259,662.615051 543.660034,679.173096 
	C547.335693,687.706970 548.744263,696.726624 548.334656,706.014160 
	C548.212036,708.794128 548.508728,710.884216 552.241760,710.780762 
	C563.694885,710.463379 572.873108,715.476135 580.324646,723.761841 
	C582.913086,726.640076 585.662659,727.647522 589.456787,727.687744 
	C617.611694,727.985840 645.771362,728.240234 673.914856,729.029968 
	C686.404480,729.380432 698.888000,729.598938 711.378113,729.754272 
	C714.600830,729.794373 716.248840,728.686157 715.550354,725.391296 
	C713.217224,714.385132 710.013611,703.707825 702.121155,695.205505 
	C697.204956,689.909363 691.243347,687.885376 684.017517,689.968140 
	C678.633728,691.520020 676.137512,689.323608 676.336060,683.703247 
	C676.471191,679.878418 676.733887,676.046509 676.625549,672.226685 
	C676.186157,656.725586 666.382812,645.387268 652.633972,645.427917 
	C646.739746,645.445312 643.968628,643.082947 641.698547,638.160278 
	C632.737061,618.726746 626.312317,598.440369 621.165649,577.743286 
	C615.265442,554.015930 610.977417,530.029968 609.452026,505.541168 
	C608.916443,496.942688 609.038391,488.354675 608.736084,479.268280 
	C585.892944,487.680298 563.333801,487.716858 541.086060,478.661194 
	C539.882385,480.871338 540.390686,482.732239 540.356201,484.529816 
	C540.183899,493.517487 540.561096,502.502747 539.762756,511.494141 
	C538.394531,526.904236 535.797485,542.122375 533.016479,558.179565 
M821.968628,660.351746 
	C819.245117,659.161499 816.554260,659.372864 813.684387,660.042725 
	C808.506287,661.251343 806.667419,659.508118 806.797241,654.070618 
	C806.872681,650.909302 807.109253,647.734558 806.919250,644.587219 
	C806.151306,631.868164 798.937012,624.710205 786.311279,624.257446 
	C783.450806,624.154907 781.521851,623.105957 780.257935,620.700623 
	C779.174744,618.639038 778.099976,616.557678 777.233398,614.399902 
	C761.853699,576.103760 752.685791,536.523132 752.623962,495.063324 
	C752.622070,493.794800 753.049988,492.392334 751.540161,490.859680 
	C733.942322,496.885010 716.043884,497.410645 697.950378,489.589996 
	C698.086975,492.656158 698.295105,495.092468 698.288391,497.528198 
	C698.227051,519.749329 694.755066,541.560608 689.797546,563.124512 
	C685.434753,582.101440 679.759033,600.696594 671.565186,618.450317 
	C669.772095,622.335571 667.532166,624.579529 662.870789,624.289978 
	C659.218079,624.063049 655.501343,624.946350 652.546326,627.360718 
	C650.872681,628.728149 648.373108,629.810303 649.286987,632.890198 
	C650.078491,635.557556 652.165161,635.661621 654.381287,635.960876 
	C665.759033,637.497131 674.867676,642.611938 680.510986,652.968384 
	C684.091614,659.539368 685.981567,666.535034 685.360718,674.068298 
	C685.054199,677.786804 685.799988,679.911438 690.371216,679.851440 
	C696.412415,679.772095 701.756470,682.393188 706.089966,686.547668 
	C708.581299,688.936096 711.191711,689.722656 714.570312,689.757874 
	C744.199707,690.066162 773.827820,690.510132 803.455505,690.968201 
	C813.769958,691.127625 824.081543,691.462341 834.395569,691.659851 
	C836.338562,691.697083 839.070984,691.964417 838.432495,688.861023 
	C836.162537,677.828613 833.373901,666.985718 821.968628,660.351746 
M588.083130,314.413208 
	C586.288086,314.063171 584.507080,313.527893 582.695923,313.390839 
	C554.891785,311.286499 532.678894,321.680756 516.972595,344.508911 
	C496.094025,374.854462 503.087189,415.020294 533.819092,433.800476 
	C534.807922,434.404755 535.720703,435.154510 536.595154,435.920654 
	C538.623962,437.698242 538.731445,440.036499 538.031067,442.355591 
	C537.368774,444.548615 535.519592,445.240875 533.329773,445.350616 
	C531.678772,445.433380 529.998718,445.603821 528.406067,446.020294 
	C526.225220,446.590607 523.250671,446.844849 523.601501,449.995972 
	C523.909668,452.764130 526.603149,453.386200 528.945129,453.614899 
	C533.158813,454.026367 537.136658,455.106049 540.832886,457.145630 
	C559.531006,467.463013 579.008911,467.037140 598.918579,461.536560 
	C607.105164,459.274811 614.286316,454.266998 622.838013,452.997467 
	C624.431885,452.760864 626.253052,451.818756 626.325989,449.891815 
	C626.411072,447.642639 624.405884,446.940674 622.650513,446.434265 
	C620.903320,445.930237 619.079163,445.501740 617.273926,445.433441 
	C614.367126,445.323425 611.894592,444.697266 611.108337,441.517578 
	C610.363647,438.505707 611.921875,436.392975 614.245178,434.743530 
	C615.466248,433.876617 616.795105,433.161682 618.017090,432.295868 
	C636.309570,419.335236 645.838135,401.299805 644.305481,379.249054 
	C642.007446,346.186218 621.018250,322.788422 588.083130,314.413208 
M673.203918,392.671417 
	C664.215088,416.051727 671.093140,438.197937 691.833923,452.692535 
	C692.786438,453.358185 693.790039,454.004364 694.580322,454.839111 
	C697.746338,458.183685 696.601746,462.114044 692.171875,463.119202 
	C691.048462,463.374115 689.827026,463.188416 688.697449,463.426727 
	C686.977966,463.789520 684.613953,463.747528 684.585938,466.175629 
	C684.559509,468.467407 686.840088,469.118927 688.538574,469.280273 
	C692.421448,469.649078 696.055054,470.563995 699.427673,472.518402 
	C707.141174,476.988434 715.630676,478.294128 724.358521,478.596375 
	C738.782715,479.095886 751.388977,472.421997 764.641296,468.313812 
	C765.552307,468.031403 766.321472,467.207489 766.216309,465.843689 
	C765.252563,463.841003 763.219055,463.606689 761.253723,463.386780 
	C758.460205,463.074158 755.374878,463.385986 754.547302,459.619659 
	C753.718567,455.847900 756.407043,454.311523 758.937927,452.612335 
	C773.960632,442.526123 781.108276,428.463043 780.915955,410.329498 
	C780.620117,382.428040 755.362122,356.711853 727.503967,356.327332 
	C703.467163,355.995544 683.465759,369.166260 673.203918,392.671417 
M406.396667,426.277893 
	C385.549072,427.842133 365.507965,425.036346 346.599518,414.209351 
	C346.705292,420.306915 348.507782,424.208282 353.352234,426.375427 
	C356.380890,427.730286 359.222565,429.587769 362.343964,430.637299 
	C388.534882,439.443207 414.498169,438.836700 440.408051,429.045868 
	C446.797455,426.631470 448.193390,422.251282 448.494537,415.710175 
	C434.933014,421.184235 421.380768,424.783661 406.396667,426.277893 
M550.728149,474.772125 
	C568.797180,480.531616 586.715027,479.891724 604.492859,473.490540 
	C608.454163,472.064148 611.690735,470.063690 610.976624,464.596161 
	C586.577209,473.816284 562.286499,475.963867 538.190796,463.829041 
	C537.862366,467.532074 539.567627,469.557739 542.334229,470.896729 
	C544.876892,472.127289 547.432190,473.331573 550.728149,474.772125 
M727.879028,484.340515 
	C717.041992,485.482605 706.758606,483.007080 696.588257,478.457764 
	C696.495300,482.178619 698.705078,482.777679 700.384216,483.554474 
	C716.977539,491.230347 733.761169,490.746277 750.615601,484.459290 
	C752.943665,483.590881 754.425049,481.997742 754.016174,478.919342 
	C745.670288,481.584747 737.490723,484.292450 727.879028,484.340515 
z"/>
</svg>