<svg version="1.1" id="Layer_1" xmlns="http://www.w3.org/2000/svg" xmlns:xlink="http://www.w3.org/1999/xlink" x="0px" y="0px"
	 width="100%" viewBox="0 0 1024 1024" enable-background="new 0 0 1024 1024" xml:space="preserve">
<path fill="#000000" opacity="1.000000" stroke="none" 
	d="
M1.000000,1007.469727 
	C3.077937,998.433167 3.962875,989.654175 5.815796,981.027222 
	C10.553585,958.968445 22.973549,941.184326 36.415276,923.880310 
	C44.201614,913.856628 52.957836,904.379333 65.657677,901.583008 
	C74.799751,899.570007 77.521446,895.586670 78.361610,886.565247 
	C80.063400,868.292053 88.635994,853.191895 101.387619,839.561646 
	C113.874374,826.214478 127.773720,817.399414 145.970184,815.747559 
	C149.528473,815.424561 149.915787,812.630981 151.058990,810.353882 
	C162.709824,787.146484 169.005112,762.046387 176.427704,737.385315 
	C186.605301,703.570862 193.948303,669.059753 199.321167,634.166992 
	C203.960251,604.039612 207.167740,573.751221 206.738358,543.201660 
	C206.565079,530.872803 205.458084,518.621216 203.114746,506.467621 
	C202.318146,502.336090 200.400787,500.022827 196.654770,498.510254 
	C191.872879,496.579376 187.233002,494.326416 182.908279,491.430084 
	C164.531219,479.122681 165.351883,456.772430 184.626114,446.017426 
	C185.616241,445.464905 186.849228,445.202454 187.218384,443.857544 
	C186.966782,442.183655 185.506958,441.487946 184.410400,440.542358 
	C165.991745,424.659546 153.827072,404.622223 146.063858,381.855194 
	C131.917572,340.368683 138.684937,301.176239 161.179688,264.616882 
	C186.817520,222.949295 222.713943,194.430664 271.483002,184.424316 
	C308.911957,176.744705 343.513275,185.141541 375.843079,204.644043 
	C395.392944,216.437225 412.081360,231.619461 425.156189,250.093170 
	C450.818817,286.352509 463.135834,326.254974 453.094025,370.869568 
	C446.881836,398.469635 432.749268,421.673126 411.798035,440.708954 
	C410.733795,441.675934 409.167328,442.238678 408.776733,444.481018 
	C413.879089,446.941742 418.521545,450.195679 421.749634,455.301788 
	C429.547058,467.635590 427.766113,479.713745 416.458649,489.015656 
	C411.512268,493.084747 405.824219,495.963409 399.931732,498.223785 
	C395.149689,500.058197 393.071838,503.083252 392.134216,508.006561 
	C388.714172,525.964478 388.447906,544.058533 389.038574,562.220093 
	C390.631104,611.185059 399.114685,659.130676 410.611603,706.608032 
	C417.905579,736.729248 426.790192,766.377075 438.064056,795.275452 
	C438.124573,795.430664 438.184357,795.586365 438.251312,795.738892 
	C443.597961,807.913757 446.256042,809.015381 458.891327,804.487610 
	C461.125061,803.687195 461.597137,801.715637 462.452209,799.953308 
	C472.975861,778.263428 478.870087,754.978577 485.513580,731.987915 
	C493.606750,703.980591 499.270752,675.399597 503.340546,646.546021 
	C506.878845,621.460327 508.897827,596.225281 507.555756,570.855835 
	C507.231659,564.729431 505.995758,558.654114 505.259583,552.545593 
	C504.776550,548.537842 502.832977,545.949341 498.944580,544.465454 
	C494.908630,542.925293 491.026031,540.938293 487.508270,538.357727 
	C474.104645,528.525330 474.484344,511.746857 488.321381,502.473572 
	C489.417725,501.738831 490.574585,501.094391 491.722046,500.396637 
	C491.583923,498.099518 489.628937,497.399536 488.408051,496.200256 
	C458.892181,467.207520 446.627411,432.430908 455.098999,391.654297 
	C466.174194,338.345703 513.561462,294.113922 567.377319,286.203705 
	C598.385742,281.645874 626.393250,290.254547 652.127319,307.399994 
	C666.734192,317.131958 679.146057,329.278046 688.972351,343.666809 
	C703.103577,364.359314 712.407227,387.132904 712.887024,412.569702 
	C713.355774,437.421906 706.431458,460.149445 691.579407,480.394470 
	C686.343384,487.531738 680.161011,493.703735 673.540894,500.005890 
	C674.788391,500.822876 675.574158,501.377136 676.396606,501.870239 
	C691.566589,510.965546 692.284302,528.583435 677.711975,538.670654 
	C673.906921,541.304565 669.649597,543.390442 665.379639,545.211548 
	C662.382935,546.489563 661.016418,548.454285 660.415100,551.438416 
	C657.301514,566.889099 656.748596,582.526733 657.467346,598.184204 
	C658.536499,621.475586 661.168884,644.609558 665.243042,667.586670 
	C672.408630,707.999023 682.514954,747.609009 696.970459,786.061279 
	C697.667053,787.914062 698.207642,789.878113 700.364746,791.446106 
	C705.458069,788.696167 711.160950,787.051575 717.131897,786.289429 
	C719.885803,785.937927 720.591309,783.495544 721.646423,781.415161 
	C729.002686,766.911133 732.849304,751.164978 737.508911,735.745728 
	C747.449951,702.849487 754.188965,669.245850 757.477966,635.032654 
	C759.343079,615.630493 760.257446,596.160095 756.949463,576.742126 
	C756.316040,573.024292 754.779236,570.701111 751.244751,569.405762 
	C747.642029,568.085510 744.275146,566.246094 741.249023,563.821045 
	C731.181824,555.753357 731.247681,543.268860 741.437622,535.254578 
	C742.606567,534.335205 743.841309,533.499390 745.767578,532.100525 
	C740.922791,527.533936 736.232605,523.189148 732.444824,517.981079 
	C707.787354,484.078522 706.176270,448.601410 726.353027,412.489777 
	C742.104492,384.298309 765.625916,364.908844 797.229919,356.257477 
	C825.913635,348.405548 852.523071,354.132172 876.938599,369.992706 
	C906.392639,389.126221 924.915039,416.043121 929.439636,451.211426 
	C933.277954,481.045319 923.360046,506.612183 902.161011,527.859558 
	C900.780457,529.243286 898.951355,530.249023 898.105530,532.472229 
	C899.445190,533.418884 900.815247,534.308289 902.100098,535.307251 
	C912.092224,543.076904 912.252258,555.528381 902.534912,563.537598 
	C899.401672,566.120056 895.830261,567.934814 892.140808,569.437744 
	C888.503052,570.919678 886.827271,573.362122 886.119019,577.202026 
	C883.281494,592.588074 883.553467,608.092834 884.592529,623.540955 
	C886.821838,656.685425 892.815002,689.237244 901.262085,721.345581 
	C905.712646,738.262512 910.804871,754.985413 917.173523,771.283386 
	C920.510132,779.822021 925.970947,785.304443 935.441040,788.620544 
	C955.589783,795.675720 966.931885,811.611755 970.992859,832.125732 
	C972.448669,839.480042 974.205322,843.635986 982.246094,845.743164 
	C993.065857,848.578552 999.101990,858.189270 1005.575073,866.722229 
	C1017.794556,882.830261 1023.201965,901.250916 1024.225220,921.133179 
	C1024.607422,928.560791 1021.976013,931.199097 1014.450317,931.072327 
	C984.134155,930.561829 953.820679,929.892273 923.505981,929.292786 
	C890.690735,928.643860 857.875427,927.992249 825.059082,927.401733 
	C822.986145,927.364441 820.738586,926.727661 818.431641,928.507080 
	C820.900635,937.322388 823.531189,946.238464 824.638123,955.474487 
	C825.133057,959.604004 825.704285,963.735962 825.926514,967.883667 
	C826.213074,973.229614 822.202759,977.615845 816.656860,977.572937 
	C798.180054,977.429932 779.705078,977.040527 761.229797,976.721130 
	C759.067017,976.683777 756.907959,976.418579 754.745300,976.386902 
	C720.423340,975.884216 686.099731,975.477234 651.779297,974.887268 
	C632.292236,974.552307 612.810425,973.915161 593.325439,973.448730 
	C591.698914,973.409790 589.993652,973.018799 587.860352,974.329651 
	C589.136169,980.217468 590.534790,986.296631 591.757080,992.410950 
	C593.194458,999.601379 594.183289,1006.848572 594.417297,1014.202209 
	C594.546631,1018.266541 593.725403,1021.795532 590.229126,1024.734375 
	C549.312439,1025.000000 508.624878,1025.000000 467.092712,1024.842041 
	C464.926178,1024.556763 463.605530,1024.334595 462.282074,1024.316162 
	C424.131531,1023.782898 385.980652,1023.470276 347.834625,1022.434509 
	C299.848389,1021.131531 251.859726,1022.413086 203.876144,1023.311218 
	C182.052277,1023.719788 160.224915,1023.940857 138.399277,1024.257446 
	C136.573914,1024.283813 134.718475,1024.164185 133.000000,1025.000000 
	C88.999969,1025.000000 44.999943,1025.000000 1.000000,1025.000000 
	C1.000000,1019.239380 1.000000,1013.589417 1.000000,1007.469727 
M502.284698,935.108826 
	C500.246399,935.977112 498.176331,936.268250 495.944183,935.895081 
	C486.438446,934.306213 481.788544,925.837402 483.133301,914.558472 
	C485.193909,897.275818 484.152283,880.319031 475.583466,864.503540 
	C469.931580,854.071899 461.590210,848.261047 449.577942,848.119995 
	C445.415375,848.071106 441.210449,847.720276 437.098175,848.173035 
	C430.071259,848.946594 425.698792,845.723938 422.632263,839.862000 
	C415.052795,825.373230 408.639404,810.363403 402.990234,795.041931 
	C386.184814,749.462708 373.941742,702.667297 365.391144,654.847595 
	C358.635712,617.067566 353.972961,579.141113 354.666077,540.681763 
	C354.700439,538.776855 355.316772,536.693298 353.877197,534.978210 
	C294.863373,544.314087 308.797760,548.228149 240.871063,533.101074 
	C240.999420,544.773499 241.036636,556.379639 240.467926,568.011230 
	C239.181442,594.323242 236.059845,620.395508 231.719131,646.340271 
	C224.426727,689.927490 213.972580,732.745361 200.000595,774.684082 
	C192.728256,796.513000 184.120407,817.810486 174.253418,838.598389 
	C171.094284,845.254089 166.433456,849.028809 158.503265,848.159241 
	C153.904236,847.654968 149.180649,848.019409 144.531342,848.297668 
	C135.323837,848.848755 128.007996,852.768921 122.878868,860.669312 
	C111.751350,877.809082 109.405945,896.571899 112.646301,916.275879 
	C113.745125,922.957581 112.530472,928.772461 107.321571,932.965393 
	C102.365540,936.954712 96.921860,936.715576 90.977814,933.864624 
	C79.133499,928.183594 68.980232,930.814819 60.738441,940.776978 
	C48.721794,955.302185 42.898888,972.575256 38.561432,990.521606 
	C37.779068,993.758667 39.245277,994.791565 42.229076,994.621826 
	C46.384926,994.385498 50.542057,994.099976 54.702156,994.021179 
	C90.680855,993.339355 126.660454,992.705078 162.639572,992.045105 
	C199.452057,991.369934 236.263641,990.643188 273.076843,990.009827 
	C313.069092,989.321655 353.034271,990.781311 393.008881,991.577637 
	C424.326996,992.201599 455.652893,992.429321 486.972137,993.004822 
	C506.121857,993.356689 525.264404,994.085388 544.412964,994.523315 
	C548.648926,994.620239 552.966736,995.331604 557.609619,993.921631 
	C554.082153,975.347534 548.265503,957.991516 537.034607,942.824097 
	C527.604431,930.088501 517.479126,927.776306 502.284698,935.108826 
M486.117340,813.492920 
	C484.659760,816.671875 483.298462,819.899841 481.711029,823.012512 
	C480.640656,825.111389 480.685181,826.587402 482.745605,828.123657 
	C487.997375,832.039551 491.745667,837.441711 496.225281,842.118835 
	C510.302612,856.817200 516.551453,874.668274 518.091919,894.470581 
	C518.360291,897.920349 519.812988,899.097656 522.834534,899.542786 
	C534.345032,901.238403 543.773071,906.912842 551.828796,915.056030 
	C559.953186,923.268494 566.659058,932.622742 572.874146,942.294617 
	C575.049316,945.679688 577.488586,946.812256 581.411438,946.857544 
	C604.733582,947.126770 628.052795,947.651001 651.372803,948.102478 
	C697.840515,949.002197 744.307922,949.915771 790.776184,950.788696 
	C792.189514,950.815247 793.803040,951.282471 795.159607,949.619019 
	C792.572083,935.750488 788.030640,922.489685 779.911743,910.597656 
	C771.731384,898.615662 764.306702,896.463684 750.853760,902.174194 
	C744.922791,904.691772 738.955322,902.618408 736.061951,896.847656 
	C734.309448,893.352478 734.065857,889.604492 734.410278,885.686157 
	C735.287598,875.704529 735.511902,865.736633 732.806702,855.915649 
	C727.564880,836.885376 719.370178,830.689575 699.771973,831.097473 
	C698.772522,831.118286 697.761963,831.060791 696.775635,831.187927 
	C690.959595,831.938171 687.214783,829.148010 684.808289,824.166443 
	C681.693481,817.718445 678.425354,811.331543 675.620911,804.748901 
	C662.922729,774.943909 653.613403,744.039124 646.169312,712.552429 
	C635.915771,669.181702 628.932617,625.375916 628.832397,580.663879 
	C628.828125,578.771301 629.494812,576.672180 627.646790,574.643311 
	C597.320801,583.803345 566.909302,583.938599 536.896179,573.035583 
	C535.779968,575.071350 536.174438,576.769104 536.224854,578.396606 
	C536.612793,590.904663 536.120911,603.400818 535.065247,615.844849 
	C532.289307,648.565186 526.860901,680.879089 519.210571,712.807007 
	C511.010712,747.028198 500.916748,780.641418 486.117340,813.492920 
M181.365295,296.824890 
	C174.258041,316.217133 171.341110,336.143127 174.258774,356.688293 
	C178.520004,386.694305 190.582733,412.070312 217.495331,428.517212 
	C223.028824,431.898804 228.490875,435.444733 233.696671,439.304901 
	C243.576721,446.631073 242.006882,459.613953 230.839340,464.631744 
	C226.371155,466.639343 221.793030,466.346313 217.115158,465.725464 
	C213.165863,465.201355 207.938217,464.284393 206.839294,468.988647 
	C205.810669,473.392029 210.894791,474.959900 214.428894,476.137360 
	C230.360779,481.445312 246.214645,486.952393 262.711426,490.476562 
	C284.323761,495.093597 305.849091,495.755768 327.606781,491.671387 
	C342.872192,488.805695 357.627136,484.209656 372.331360,479.415070 
	C377.205566,477.825684 382.302582,476.549500 386.625854,473.592041 
	C388.239380,472.488281 390.056152,471.108643 389.448761,468.748779 
	C388.923767,466.709015 386.912445,466.240540 385.170746,465.717316 
	C383.213531,465.129303 381.224091,465.525269 379.228119,465.717041 
	C376.419250,465.986908 373.534241,466.421204 370.775757,466.062561 
	C364.746613,465.278687 359.458527,462.830902 356.883911,456.867432 
	C354.501251,451.348541 356.800812,446.366882 359.786316,441.859589 
	C361.836060,438.765106 365.437012,437.297394 368.463562,435.248413 
	C377.140839,429.373993 386.595947,424.397430 393.759460,416.642151 
	C411.899994,397.003174 420.916016,373.401764 421.866638,346.864594 
	C423.514679,300.859619 405.419098,263.488586 369.091370,236.052643 
	C344.114471,217.189209 314.558197,210.891937 283.436859,214.679504 
	C259.531128,217.588928 237.560760,225.772980 219.185623,242.089432 
	C202.305801,257.078064 189.654190,274.967834 181.365295,296.824890 
M746.059631,782.427307 
	C743.780884,787.611389 741.462158,792.778381 739.233582,797.984009 
	C736.498413,804.372925 733.813293,810.761230 724.667236,808.288086 
	C744.520325,821.210632 758.655945,837.599243 762.084473,861.111877 
	C763.226624,868.944702 765.140991,873.156738 773.775513,875.185364 
	C786.579346,878.193420 794.548340,888.640320 801.613647,899.046387 
	C804.788330,903.722229 807.965088,905.169617 813.682312,905.194214 
	C843.994385,905.324524 874.303345,906.148071 904.613708,906.715149 
	C934.595032,907.276062 964.577515,907.781982 994.557190,908.421387 
	C997.624573,908.486755 998.908691,907.972717 998.117859,904.541687 
	C995.626465,893.732727 992.003052,883.413757 985.513916,874.308838 
	C978.930969,865.072449 973.168152,863.352112 962.712158,867.574036 
	C959.936646,868.694702 957.344971,869.218384 954.515015,868.125122 
	C949.612000,866.230835 946.913330,860.633789 948.052185,853.826416 
	C949.370056,845.949646 948.713013,838.198486 946.916138,830.537842 
	C942.926270,813.527710 934.178101,807.101807 916.744202,808.564392 
	C911.822266,808.977356 908.728699,807.069824 906.702026,802.926514 
	C903.996277,797.394958 901.192810,791.897644 898.792297,786.232605 
	C886.991394,758.383484 878.564880,729.453247 872.109924,699.968323 
	C864.906860,667.066101 859.845581,633.854919 859.872253,600.041809 
	C859.873474,598.455688 860.416809,596.704895 858.756409,594.941223 
	C846.592102,598.347046 834.031311,600.448914 821.119629,600.296753 
	C808.105042,600.143372 795.523682,597.646240 783.056152,593.495422 
	C784.138550,655.748047 766.428955,732.195312 746.059631,782.427307 
M668.950195,360.552704 
	C646.821228,325.139893 614.763611,309.010834 573.300842,312.198303 
	C510.450897,317.029877 472.436066,379.331268 482.425079,433.635590 
	C486.663666,456.678284 497.168640,475.971802 518.329834,488.087189 
	C521.931885,490.149445 525.294861,492.634338 528.735474,494.972198 
	C534.008057,498.554779 536.554565,504.676025 535.067749,510.060699 
	C533.759399,514.798889 528.104980,518.236145 521.496704,518.253967 
	C518.170166,518.262939 514.842041,518.113403 511.517456,518.178711 
	C510.139557,518.205811 508.898468,518.836670 508.455811,520.323975 
	C508.010895,521.818848 508.817810,522.897095 509.853912,523.810120 
	C511.512299,525.271423 513.527771,526.077698 515.592102,526.755310 
	C521.283447,528.623474 526.990845,530.442871 532.676453,532.328247 
	C549.530701,537.917114 566.834229,541.744141 584.569763,541.433960 
	C605.551025,541.067200 625.644592,535.379944 645.321838,528.340515 
	C648.604858,527.166016 652.086121,526.426453 654.971924,524.335205 
	C656.299072,523.373535 657.923828,522.290649 657.344971,520.342163 
	C656.786682,518.463257 654.915344,518.131287 653.244507,518.105469 
	C649.583923,518.048950 645.904846,518.425171 642.261108,518.191528 
	C632.971558,517.595703 628.424133,510.448822 631.422485,501.693665 
	C632.909119,497.352966 636.500610,495.302948 639.980408,493.006165 
	C649.269592,486.874908 659.153748,481.462280 665.985352,472.265869 
	C678.201050,455.821503 684.323792,437.193726 684.561340,416.848877 
	C684.793640,396.950043 679.452942,378.351929 668.950195,360.552704 
M784.714172,560.756653 
	C799.252808,564.599731 813.876038,567.774109 829.079102,566.428528 
	C845.131165,565.007690 860.456116,560.567017 875.570557,555.250427 
	C877.140564,554.698120 878.763489,554.240967 880.242859,553.501526 
	C881.867126,552.689636 883.881714,551.661743 883.395264,549.529358 
	C882.908813,547.396973 880.733765,547.299377 878.852478,547.362671 
	C876.359924,547.446472 873.831055,547.952393 871.387756,547.670410 
	C866.866394,547.148621 862.758789,545.323975 861.489929,540.531311 
	C860.226379,535.758545 862.202637,531.740540 865.997009,528.680237 
	C867.027649,527.848938 868.251465,527.261902 869.348938,526.507996 
	C878.524170,520.204895 888.215332,514.598511 894.208130,504.558136 
	C903.373535,489.202271 907.902466,472.814972 905.864990,454.944946 
	C901.933960,420.464844 885.526917,394.374451 852.627930,381.316315 
	C823.944336,369.931274 795.828613,373.251892 771.338745,392.282715 
	C746.752014,411.388794 734.980408,437.453033 737.202454,468.881104 
	C738.788086,491.308411 747.606689,510.042877 767.624329,522.178101 
	C770.327759,523.817017 772.932068,525.620361 775.572205,527.362915 
	C780.594177,530.677551 783.371521,536.561646 781.937622,540.818726 
	C780.436157,545.276367 774.467834,548.263489 768.205933,547.750427 
	C766.224304,547.588135 764.139221,547.165649 762.264221,547.586975 
	C759.528381,548.201660 758.648560,549.915283 761.029236,552.198364 
	C762.398987,553.511963 764.155273,554.072815 765.897095,554.645691 
	C771.907288,556.622070 777.921631,558.586060 784.714172,560.756653 
M352.502716,516.087036 
	C361.609711,513.041077 357.683441,504.381989 361.432922,497.507843 
	C318.652588,513.535767 277.187195,513.509216 235.391693,497.814026 
	C236.237747,502.050171 237.176071,505.422211 237.524261,508.854156 
	C237.893326,512.491821 239.787384,514.480530 242.975647,515.822876 
	C248.217331,518.029663 253.612320,519.627930 259.184906,520.748230 
	C272.772888,523.479736 286.402191,524.430664 300.327911,524.412292 
	C318.043579,524.388916 335.101868,521.993835 352.502716,516.087036 
M542.604370,548.066162 
	C539.252869,547.362183 536.276489,545.237366 532.695129,545.210266 
	C532.217163,555.162537 533.771545,558.078003 542.451050,560.521118 
	C569.308228,568.081116 596.270691,568.058411 623.150208,560.571167 
	C631.840759,558.150452 633.919373,554.602661 633.022949,544.886047 
	C603.471191,555.452576 573.589478,556.794495 542.604370,548.066162 
M838.774841,586.247986 
	C844.572327,585.549011 850.279663,584.412598 855.853210,582.657166 
	C862.349121,580.611206 863.995361,577.794739 862.765381,570.172241 
	C835.139343,580.158386 807.450134,579.941956 779.718018,569.861206 
	C780.988342,580.605652 781.246277,580.919373 790.772156,583.594299 
	C806.271484,587.946594 822.071472,587.343079 838.774841,586.247986 
z"/>
</svg>