<svg version="1.1" id="Layer_1" xmlns="http://www.w3.org/2000/svg" xmlns:xlink="http://www.w3.org/1999/xlink" x="0px" y="0px"
	 width="100%" viewBox="0 0 1024 1024" enable-background="new 0 0 1024 1024" xml:space="preserve">
<path fill="#000000" opacity="1.000000" stroke="none" 
	d="
M394.531342,1.000000 
	C407.133972,2.960227 419.398041,3.910694 431.506317,6.172801 
	C465.653961,12.552356 498.085907,23.763897 528.938416,39.684700 
	C597.639404,75.136459 650.531189,126.585930 686.038208,195.431763 
	C705.779236,233.708221 717.982056,274.388092 722.339111,317.262360 
	C726.971924,362.849976 724.908081,408.070557 713.255066,452.587341 
	C700.589294,500.972839 678.660156,544.724548 647.275330,583.705017 
	C646.439819,584.742676 645.775879,585.948914 644.821533,586.854797 
	C641.864197,589.661865 642.525330,592.089661 644.910767,595.012756 
	C654.391357,606.629883 663.685547,618.399231 673.049622,630.111450 
	C702.701111,667.198120 732.357666,704.280640 762.003174,741.372009 
	C809.642822,800.976746 857.275330,860.587158 904.910828,920.195190 
	C920.390808,932.034546 918.207397,964.552856 906.930298,980.898071 
	C898.037048,993.788086 886.271851,1003.370667 873.299194,1011.761963 
	C861.903748,1019.133179 849.919067,1024.386841 835.974731,1024.203857 
	C823.806274,1024.044189 814.226807,1019.218750 806.603516,1009.768738 
	C733.475830,919.117371 660.280640,828.520447 587.112000,737.902039 
	C572.039246,719.234619 556.909668,700.611816 542.012146,681.805359 
	C539.005981,678.010437 536.747498,677.223633 532.210083,679.789185 
	C490.344238,703.461060 445.404480,717.790771 397.605499,723.062927 
	C358.006439,727.430542 318.831696,724.861816 280.026978,715.821655 
	C207.671204,698.965271 146.880432,662.523376 97.266045,607.493652 
	C68.678665,575.786011 47.105164,539.471924 29.814861,500.557129 
	C16.126049,469.748138 7.357859,437.551392 3.135972,404.124512 
	C2.241272,397.040680 1.862175,389.891724 1.122759,382.386383 
	C1.000000,364.645782 1.000000,347.291534 1.111015,329.077606 
	C1.362716,327.571747 1.602311,326.929749 1.629885,326.278809 
	C2.929443,295.598480 9.685256,266.011505 19.602261,237.076324 
	C36.673923,187.265732 63.892624,143.656860 100.611610,106.035324 
	C130.809158,75.095505 165.604813,50.513882 204.934891,32.449257 
	C230.917130,20.515398 257.911224,11.795499 286.040222,6.483130 
	C298.629974,4.105464 311.367523,2.962652 324.000000,1.000000 
	C347.354218,1.000000 370.708466,1.000000 394.531342,1.000000 
M532.515747,85.011589 
	C483.469452,55.738415 430.367401,39.824310 373.345398,37.496853 
	C338.357391,36.068752 303.864044,39.968487 270.029327,49.309635 
	C199.799011,68.698914 143.045319,107.677803 100.493088,166.787933 
	C68.012711,211.907059 47.517338,262.021637 39.965157,317.318298 
	C34.882458,354.533539 36.385113,391.463501 44.529858,428.020416 
	C58.300468,489.828522 87.229500,543.699646 131.279114,589.219360 
	C166.615448,625.734924 208.125473,652.915344 256.332611,669.421875 
	C297.084717,683.375610 338.819458,690.633179 382.059296,686.772888 
	C422.795197,683.136230 461.600464,672.533752 498.411865,654.655212 
	C539.891663,634.509216 575.728577,606.971985 605.988831,572.239990 
	C631.395020,543.079285 651.006836,510.351105 665.170410,474.353973 
	C678.325684,440.919373 685.812073,406.246155 687.633240,370.388916 
	C689.129272,340.933472 686.335815,311.814331 679.520081,283.125122 
	C672.200073,252.313828 661.500183,222.735184 644.852417,195.681198 
	C616.649597,149.849380 579.012390,113.402832 532.515747,85.011589 
M690.563416,805.029175 
	C692.283630,807.687805 694.468079,808.095398 697.442444,807.006653 
	C713.344421,801.185791 725.770935,791.147156 734.879150,776.885132 
	C737.067505,773.458618 736.886169,770.842346 734.222107,767.523682 
	C695.743713,719.591125 657.411072,671.541565 619.010132,623.546692 
	C617.823181,622.063171 617.060913,619.964905 614.331055,619.664978 
	C600.702820,632.684631 585.694458,644.410645 570.280090,656.207092 
	C610.559387,706.046753 650.331421,755.258789 690.563416,805.029175 
M760.181519,891.331360 
	C784.064026,920.860657 807.948669,950.388184 831.827087,979.920776 
	C836.396240,985.571838 837.476929,985.990479 844.101685,983.191406 
	C855.572998,978.344666 865.093384,971.022583 871.899292,960.442810 
	C878.866882,949.611633 878.712158,948.268799 870.775635,938.312561 
	C842.220886,902.491455 813.763733,866.592529 785.157532,830.812622 
	C779.167175,823.320007 773.566650,815.462891 766.228088,808.293213 
	C754.221802,823.839417 738.931641,834.682617 720.994080,842.591614 
	C734.319092,859.156067 747.034546,874.962830 760.181519,891.331360 
M747.535889,806.031189 
	C749.795715,803.372620 752.095947,800.746887 754.296448,798.040039 
	C755.241699,796.877319 756.187256,795.508240 755.102661,793.972229 
	C753.051514,791.067261 751.170349,787.979736 747.782959,785.675232 
	C737.253845,802.537964 722.302490,813.721619 704.603577,821.415039 
	C709.061523,829.555542 709.988403,829.992676 717.629700,826.747986 
	C728.785950,822.010742 738.576172,815.224915 747.535889,806.031189 
z"/>
</svg>