<svg version="1.1" id="Layer_1" xmlns="http://www.w3.org/2000/svg" xmlns:xlink="http://www.w3.org/1999/xlink" x="0px" y="0px"
	 width="100%" viewBox="0 0 1024 1024" enable-background="new 0 0 1024 1024" xml:space="preserve">
<path fill="#000000" opacity="1.000000" stroke="none" 
	d="
M1.000000,533.000000 
	C1.000000,522.979126 1.000000,512.958191 1.059207,502.060913 
	C2.150811,498.445801 1.733819,495.578186 1.792741,492.768951 
	C2.198477,473.424591 4.006595,454.201172 7.197644,435.134674 
	C14.799001,389.716614 28.029617,346.011841 47.561729,304.258362 
	C72.002327,252.012085 102.193810,203.549042 141.496323,161.046631 
	C187.681778,111.100868 241.549164,71.746223 303.503632,43.581421 
	C341.902863,26.124956 381.918213,13.897575 423.461243,6.461232 
	C436.591797,4.110820 449.864319,3.121748 463.000000,1.000000 
	C494.687561,1.000000 526.375122,1.000000 558.904663,1.138323 
	C565.041016,1.837902 570.353394,2.266484 575.626892,2.981897 
	C610.555359,7.720297 644.689941,15.751387 677.937927,27.540943 
	C736.376770,48.263084 789.128723,78.764046 836.369202,118.925018 
	C872.281250,149.455215 902.894226,184.764252 930.302551,222.905533 
	C984.742798,298.664368 1016.169922,382.966370 1023.566956,476.120209 
	C1024.119507,483.078949 1023.425903,490.120636 1025.000000,497.000000 
	C1025.000000,509.687561 1025.000000,522.375122 1024.955811,535.941833 
	C1024.694214,538.290344 1024.305542,539.757263 1024.285400,541.229370 
	C1023.998352,562.087891 1021.661987,582.756470 1017.973938,603.245422 
	C1000.174377,702.130798 956.823730,788.248169 888.063354,861.476074 
	C852.448303,899.405212 811.423401,930.498962 766.310303,956.305237 
	C699.434204,994.560730 628.218140,1018.854736 550.876343,1023.621704 
	C546.246948,1023.907043 541.520935,1023.516724 537.000000,1025.000000 
	C518.979126,1025.000000 500.958221,1025.000000 482.092468,1024.844238 
	C479.102661,1024.439209 476.963501,1024.049438 474.811981,1023.961365 
	C436.780029,1022.403687 399.796265,1014.859985 363.535645,1003.773621 
	C293.489349,982.357544 231.458313,946.574463 176.454407,898.358459 
	C98.825226,830.309387 45.232533,747.090027 18.012423,647.272522 
	C9.716167,616.849731 4.013997,585.963501 2.390250,554.371094 
	C2.024544,547.255737 2.495159,540.051514 1.000000,533.000000 
M48.826431,444.233582 
	C43.326145,481.462463 41.936283,518.796204 45.063934,556.347900 
	C48.709919,600.122864 58.108364,642.557800 73.400681,683.698181 
	C103.160515,763.760071 150.554596,830.873718 219.427643,882.165039 
	C220.807800,883.192810 221.908920,884.988159 224.433273,884.296692 
	C224.807465,876.729004 225.335846,869.124573 225.534866,861.511475 
	C226.720413,816.162048 231.139603,771.160645 239.727142,726.589844 
	C247.893494,684.205200 261.678192,643.911743 284.101990,606.816040 
	C291.464630,594.636047 299.799835,583.229309 310.696594,573.909424 
	C324.340302,562.240112 339.866943,555.389771 358.104401,555.684570 
	C376.591705,555.983459 392.864075,562.998169 407.981720,572.886963 
	C421.655060,581.830933 435.817322,589.950012 449.666443,598.575378 
	C465.269440,608.293091 482.327545,613.437988 499.948395,617.290588 
	C504.776337,618.346130 509.722198,619.030090 514.807922,618.450745 
	C541.813049,615.374756 565.781128,605.005615 587.597168,589.032471 
	C599.140076,580.581055 610.427185,571.747620 623.300293,565.203552 
	C653.763428,549.717590 683.318481,552.465881 708.627625,575.255127 
	C733.705017,597.835510 750.926758,626.088745 762.909546,657.515259 
	C780.871643,704.623413 788.495972,753.911743 793.255859,803.763611 
	C795.663086,828.975342 796.949768,854.259277 797.288391,879.588196 
	C797.307556,881.024353 796.936096,882.643372 798.442627,883.780823 
	C800.729309,884.153076 802.037292,882.389343 803.552368,881.221558 
	C817.158264,870.734009 830.239441,859.618469 842.586792,847.677795 
	C884.066650,807.564270 918.599487,762.389404 942.111572,709.376831 
	C962.318054,663.817749 974.677673,616.168640 979.961365,566.573181 
	C984.295288,525.892517 983.324463,485.385925 977.366943,445.009827 
	C971.604492,405.955902 961.033203,368.173431 945.719910,331.743561 
	C915.999878,261.040436 872.712646,200.051620 813.336548,151.384247 
	C732.518860,85.142288 639.171997,50.064941 534.974060,44.521862 
	C478.448120,41.514816 422.962189,48.501678 368.730286,65.293472 
	C306.135498,84.674652 250.445877,115.970192 201.937454,160.056915 
	C158.190277,199.816406 122.670723,245.875244 95.843597,298.563019 
	C72.541512,344.327728 56.582909,392.502197 48.826431,444.233582 
M398.417480,603.112305 
	C394.455048,600.989258 390.567688,598.708557 386.513336,596.778687 
	C379.710266,593.540405 372.538940,591.496399 365.066132,590.327637 
	C346.618042,587.442383 332.922333,594.435913 321.944397,609.205750 
	C309.317139,626.194702 301.161224,645.295105 294.443665,664.993225 
	C273.210083,727.256958 261.244537,791.372009 257.374023,857.028748 
	C257.132324,861.129028 258.641937,863.367188 262.111053,865.350586 
	C289.782745,881.170654 318.318237,895.155212 348.204071,906.295654 
	C426.073547,935.322754 506.024994,946.341675 588.638123,933.764038 
	C651.287354,924.225830 708.584290,901.238098 760.611023,865.043213 
	C763.767944,862.847046 764.792847,860.389282 764.535461,856.664246 
	C763.766479,845.535767 763.430054,834.377625 762.679626,823.247620 
	C761.436707,804.812195 759.710632,786.415283 757.037903,768.127686 
	C752.330933,735.920471 744.182312,704.517883 734.102966,673.626221 
	C727.849121,654.458984 720.929932,635.483704 709.686584,618.516296 
	C704.237976,610.293762 698.170654,602.471008 689.228882,597.675476 
	C665.761047,585.089539 643.192200,587.593323 622.167725,603.042542 
	C603.181152,616.994202 583.668274,629.965637 562.173645,639.694275 
	C542.523804,648.587952 522.080444,654.350403 500.237488,652.171875 
	C474.829865,649.637817 451.881744,639.995605 430.690186,626.192322 
	C419.821136,619.112610 409.575806,611.075378 398.417480,603.112305 
M607.679626,971.037292 
	C662.333801,959.620789 713.557190,939.515869 761.220947,910.400085 
	C762.646729,909.529175 764.433167,908.649963 764.574890,906.903442 
	C765.131348,900.045105 765.858215,893.164856 765.144287,884.940918 
	C759.449585,888.524963 754.780884,891.555237 750.025269,894.442505 
	C658.082275,950.263123 558.356262,967.635132 452.759552,952.833191 
	C385.623810,943.422485 322.649536,920.746948 263.459686,887.653564 
	C261.774841,886.711609 260.196503,885.299438 257.447327,885.640747 
	C256.374512,891.436768 257.127747,897.390808 256.795898,903.273743 
	C256.593140,906.868469 258.126770,909.077087 261.207458,910.900940 
	C271.531982,917.013550 281.914978,923.006958 292.620758,928.432312 
	C351.015625,958.024963 412.809204,975.248596 478.168243,979.689575 
	C521.460144,982.631104 564.352844,979.962830 607.679626,971.037292 
z"/>
<path fill="#000000" opacity="1.000000" stroke="none" 
	d="
M365.068542,459.905884 
	C342.699158,432.173798 325.423553,402.246338 318.438354,367.204773 
	C309.541748,322.574554 315.835785,280.159393 336.823029,239.745071 
	C349.115082,216.074844 363.182861,193.859589 382.948486,175.562714 
	C440.795349,122.014336 526.205750,109.980835 596.319519,146.165573 
	C662.347168,180.241501 700.021484,235.612549 709.492371,308.133514 
	C717.937561,372.799835 694.692444,427.673798 645.950867,471.194458 
	C622.496094,492.136932 596.593933,509.518555 565.956482,518.038696 
	C487.346954,539.899536 420.378937,520.408264 365.068542,459.905884 
M386.568970,441.928711 
	C436.399933,487.866333 494.387939,502.024597 559.658264,485.069916 
	C588.853149,477.486206 615.323853,463.373596 635.342163,440.522156 
	C672.097351,398.565216 686.140564,349.015167 676.382202,294.187073 
	C657.809326,189.833267 563.888611,145.866730 480.187103,160.536255 
	C439.611786,167.647522 407.888611,190.846909 383.000275,222.770630 
	C350.744507,264.144257 339.867401,311.548981 348.726440,363.059387 
	C353.781097,392.449402 365.903137,418.987579 386.568970,441.928711 
z"/>
</svg>