<svg version="1.1" id="Layer_1" xmlns="http://www.w3.org/2000/svg" xmlns:xlink="http://www.w3.org/1999/xlink" x="0px" y="0px"
	 width="100%" viewBox="0 0 496 496" enable-background="new 0 0 496 496" xml:space="preserve">
<path fill="#000000" opacity="1.000000" stroke="none" 
	d="
M172.676208,385.877686 
	C172.676437,327.072571 172.614792,268.751160 172.789307,210.430435 
	C172.804520,205.344925 171.345551,202.616226 166.539474,200.659683 
	C158.219025,197.272491 150.169861,193.220428 141.391418,191.037964 
	C134.360764,189.290024 127.987526,190.396530 123.362518,196.308472 
	C118.816559,202.119339 119.191963,208.727478 121.629692,215.294983 
	C122.900101,218.717575 125.040504,219.976212 129.009521,218.722839 
	C139.344162,215.459229 139.736847,215.563522 142.414902,226.300446 
	C143.940964,232.418686 146.764603,235.288223 153.262207,236.028015 
	C161.801758,237.000290 162.115707,238.169083 160.353729,246.937561 
	C159.305893,252.152069 158.192917,257.354462 157.223999,262.583557 
	C156.518356,266.391754 154.468033,268.146210 150.568253,267.368561 
	C143.560562,265.971161 136.537460,264.638702 129.566650,263.074768 
	C126.708633,262.433533 125.573257,260.261566 126.029152,257.361084 
	C126.232704,256.066040 126.933113,254.819580 126.337509,253.463165 
	C117.498459,252.581375 117.295555,252.632996 114.944313,243.390854 
	C113.289093,236.884644 109.745453,230.801651 110.973106,223.554291 
	C111.369385,221.214859 108.244095,219.579956 106.614113,217.741074 
	C96.859741,206.736389 91.367210,194.291229 91.543556,179.219818 
	C91.868622,151.437119 109.617882,127.440666 136.432846,119.761566 
	C161.435486,112.601471 185.783295,116.194702 209.904175,124.317703 
	C229.611786,130.954483 247.327286,141.692093 265.826935,150.824356 
	C274.054047,154.885620 282.406036,158.683975 291.873993,158.663116 
	C312.192780,158.618347 327.131042,146.145355 330.776947,126.206886 
	C332.152557,118.684235 332.475311,118.507568 338.369019,118.764404 
	C341.437347,118.898117 342.429901,120.241127 342.341156,123.108421 
	C341.174164,160.815308 326.491882,190.786148 292.477631,209.413010 
	C266.319275,223.737854 238.697449,223.874146 210.537643,216.851166 
	C205.545868,215.606232 200.681641,213.855438 195.738785,212.405487 
	C194.208252,211.956497 192.694656,210.886139 190.430725,212.167175 
	C191.165604,216.817429 193.876770,220.492279 196.956436,223.894089 
	C205.308777,233.120041 216.538742,236.678558 228.112732,239.612030 
	C235.450211,241.471756 242.868011,241.636047 250.373703,241.624191 
	C293.364624,241.556305 336.355774,241.594818 379.346771,241.651489 
	C391.359314,241.667313 395.251801,245.615082 395.345337,257.515137 
	C395.478546,274.458435 392.799622,277.398560 375.422119,277.855164 
	C362.766815,278.187653 350.091736,278.123077 337.434296,277.840363 
	C332.582977,277.732025 331.167877,279.346893 331.188232,284.129639 
	C331.344910,320.954620 331.262756,357.780640 331.254028,394.606323 
	C331.253418,397.105804 331.273132,399.605652 331.239136,402.104706 
	C331.047180,416.206512 325.918701,421.259766 311.717072,421.338196 
	C309.051300,421.352936 306.379547,421.414276 303.720245,421.272430 
	C294.182495,420.763580 289.446136,416.523163 288.046417,407.072174 
	C287.658661,404.453918 287.741119,401.754608 287.739288,399.092377 
	C287.712677,360.933624 287.713043,322.774872 287.694824,284.616119 
	C287.691681,278.052917 287.631073,278.010590 280.990326,277.992523 
	C276.658081,277.980713 272.314148,278.196014 267.996674,277.945038 
	C263.485962,277.682831 261.900665,279.378693 261.924835,283.983307 
	C262.075378,312.643158 261.984222,341.304291 261.967102,369.964996 
	C261.963715,375.630280 261.826294,381.297943 261.953339,386.959961 
	C262.038727,390.764496 260.546417,392.274261 256.641846,392.259094 
	C230.314423,392.156647 203.985962,392.136047 177.658936,392.282684 
	C173.093338,392.308075 172.331238,390.020020 172.676208,385.877686 
M148.402405,258.567078 
	C147.447311,260.457642 148.099915,261.900696 150.027069,262.232025 
	C151.460037,262.478394 152.590256,261.194275 152.342148,259.766693 
	C152.013977,257.878357 150.788925,256.931854 148.402405,258.567078 
M139.414551,240.379425 
	C139.185226,238.336441 138.263580,237.234039 136.156540,238.308212 
	C135.003006,238.896286 134.504837,240.043167 135.314240,241.214249 
	C136.689850,243.204636 138.018768,242.502533 139.414551,240.379425 
M123.486084,247.488724 
	C125.338821,246.672638 126.168594,245.430954 124.495331,243.810974 
	C123.633568,242.976654 122.265778,243.002930 121.477386,244.126480 
	C120.269730,245.847565 121.348816,246.790466 123.486084,247.488724 
M144.162888,251.937973 
	C146.169022,250.861145 146.091400,249.505753 144.546082,248.137863 
	C143.714798,247.401978 142.598511,247.472290 141.991623,248.400299 
	C140.767441,250.272247 141.716537,251.384659 144.162888,251.937973 
M135.379456,255.162521 
	C133.637939,253.766205 132.284637,254.139908 131.612534,256.208862 
	C131.254990,257.309479 132.048355,258.216736 133.096481,258.394379 
	C135.055450,258.726349 135.782181,257.596283 135.379456,255.162521 
M136.434036,223.920074 
	C135.492340,222.375107 134.275162,221.837219 132.934082,223.327362 
	C132.046432,224.313660 132.186081,225.597382 133.387482,226.236542 
	C135.070267,227.131790 136.169037,226.403229 136.434036,223.920074 
M152.363129,245.139572 
	C154.035843,245.955231 155.245193,245.546783 155.492920,243.645782 
	C155.662979,242.340897 154.790070,241.381378 153.480225,241.571228 
	C151.718018,241.826675 151.030411,242.946335 152.363129,245.139572 
z"/>
</svg>