<?xml version="1.0" standalone="no"?>
<!DOCTYPE svg PUBLIC "-//W3C//DTD SVG 20010904//EN"
 "http://www.w3.org/TR/2001/REC-SVG-20010904/DTD/svg10.dtd">
<svg version="1.0" xmlns="http://www.w3.org/2000/svg"
 width="500.000000pt" height="500.000000pt" viewBox="0 0 500.000000 500.000000"
 preserveAspectRatio="xMidYMid meet">

<g transform="translate(0.000000,500.000000) scale(0.100000,-0.100000)"
fill="#000000" stroke="none">
<path d="M1725 4148 c-9 -26 -325 -1804 -325 -1830 0 -21 6 -28 30 -33 26 -6
29 -10 24 -34 -4 -16 -1 -31 8 -38 13 -11 1785 -333 1832 -333 18 0 29 7 36
23 5 12 81 428 170 925 126 707 159 907 149 918 -6 8 -22 14 -35 14 -21 0 -24
5 -24 34 0 34 -1 35 -52 45 -106 21 -1784 321 -1796 321 -7 0 -15 -6 -17 -12z
m860 -234 c319 -57 594 -106 610 -109 132 -20 281 -49 287 -54 12 -11 -47
-314 -61 -319 -10 -3 -10 -6 -2 -11 8 -6 7 -29 -4 -87 -9 -43 -18 -90 -19
-104 -2 -13 -30 -172 -62 -352 -47 -259 -62 -328 -74 -328 -12 0 -12 -2 -2 -9
11 -7 9 -36 -13 -157 -14 -82 -27 -154 -30 -160 -3 -9 -20 -8 -67 2 -35 7 -68
13 -74 14 -6 0 -15 -32 -21 -71 -6 -39 -13 -72 -15 -74 -7 -8 -333 57 -337 67
-2 6 -6 6 -10 1 -3 -5 -75 3 -173 21 -133 23 -168 33 -168 45 0 13 -2 13 -9 2
-7 -11 -80 -1 -417 59 -225 40 -412 76 -416 79 -4 4 26 191 67 416 41 226 77
424 79 440 2 17 16 95 31 175 15 80 29 156 31 170 23 133 56 317 59 326 3 9
21 8 70 -2 37 -8 70 -12 75 -9 4 3 11 26 15 52 12 89 14 93 43 87 15 -3 288
-52 607 -110z m622 -1746 c-3 -8 -6 -5 -6 6 -1 11 2 17 5 13 3 -3 4 -12 1 -19z
m-10 -60 c-3 -8 -6 -5 -6 6 -1 11 2 17 5 13 3 -3 4 -12 1 -19z"/>
<path d="M1926 3858 c-3 -7 -10 -42 -16 -78 -7 -36 -17 -68 -23 -72 -8 -5 -8
-8 -1 -8 6 0 -14 -134 -53 -347 -35 -192 -66 -364 -68 -383 -12 -84 -27 -140
-38 -140 -9 0 -9 -2 -1 -8 8 -5 4 -51 -17 -166 -16 -88 -28 -161 -26 -162 1
-1 193 -36 426 -78 234 -42 428 -81 432 -87 3 -6 8 -7 10 -2 2 5 110 -10 248
-34 134 -24 249 -42 256 -39 7 2 15 28 19 57 4 29 10 57 13 62 3 5 7 24 8 41
4 60 119 681 126 684 5 2 6 9 3 15 -2 7 16 124 41 261 24 138 44 251 42 252
-1 1 -191 36 -422 77 -480 87 -460 83 -542 98 -35 6 -63 16 -63 23 0 8 -3 8
-8 0 -5 -7 -53 -2 -157 17 -173 32 -184 33 -189 17z m669 -613 c25 -13 53 -39
73 -70 32 -47 34 -54 30 -122 -3 -60 -8 -79 -33 -114 -78 -110 -243 -118 -330
-16 -122 143 -20 356 165 344 30 -1 73 -12 95 -22z m393 -400 c39 -57 72 -108
72 -112 -1 -8 -448 -324 -462 -327 -13 -2 -159 217 -151 225 21 21 449 318
458 318 6 0 43 -47 83 -104z"/>
<path d="M1495 1711 l-70 -6 -1 -300 c0 -324 1 -355 19 -355 7 0 17 -10 22
-22 9 -20 18 -22 132 -26 140 -4 183 5 213 48 26 37 44 137 36 195 -4 24 -18
59 -30 78 l-24 35 21 21 c17 17 22 36 25 96 5 91 -17 145 -79 195 -61 49 -97
54 -264 41z m180 -198 c5 -21 2 -32 -15 -45 -12 -10 -31 -18 -41 -18 -16 0
-19 8 -19 45 0 44 0 45 34 45 29 0 35 -4 41 -27z m13 -270 c2 -33 -1 -44 -20
-57 -43 -30 -56 -22 -60 40 -1 31 -1 58 2 60 2 3 20 4 40 2 33 -3 35 -5 38
-45z"/>
<path d="M497 1689 c-4 -13 -7 -41 -7 -61 0 -31 4 -38 20 -38 13 0 20 -7 20
-20 0 -17 7 -20 41 -20 l40 0 -7 -246 c-7 -237 -6 -245 12 -250 11 -3 24 -15
29 -27 8 -18 18 -22 60 -22 l50 0 6 185 c4 102 7 224 8 273 l1 87 54 0 53 0 6
51 c7 59 4 69 -24 69 -10 0 -19 7 -19 15 0 12 -15 15 -78 15 -44 0 -119 3
-169 6 -89 7 -90 6 -96 -17z"/>
<path d="M1897 1703 c-4 -3 -7 -152 -7 -330 0 -312 1 -323 19 -323 13 0 21 -8
23 -22 3 -22 8 -23 103 -25 55 -1 121 1 147 4 l46 5 4 46 c5 58 1 72 -23 72
-10 0 -19 6 -19 14 0 17 -31 26 -92 26 l-48 0 -2 248 -3 247 -22 3 c-15 2 -23
10 -23 23 0 16 -7 19 -48 19 -27 0 -52 -3 -55 -7z"/>
<path d="M2285 1698 c-2 -7 -6 -153 -8 -324 l-5 -312 24 -21 c13 -11 24 -25
24 -31 0 -11 243 -12 325 -2 48 7 50 8 53 41 5 46 -5 81 -23 81 -8 0 -19 9
-25 20 -9 18 -21 20 -100 20 l-90 0 0 69 0 69 78 7 c106 9 104 7 100 62 -3 41
-6 48 -25 51 -15 2 -23 10 -23 23 0 17 -7 19 -65 19 -63 0 -65 1 -65 25 0 14
1 26 3 26 1 1 52 4 112 8 l110 6 3 63 c3 57 1 64 -17 69 -11 3 -23 14 -26 24
-6 18 -18 19 -181 19 -131 0 -176 -3 -179 -12z"/>
<path d="M2728 1704 c-5 -4 -8 -31 -8 -61 0 -46 3 -53 20 -53 13 0 20 -7 20
-20 0 -17 7 -20 39 -20 l39 0 -5 -244 c-6 -242 -6 -244 15 -255 12 -7 22 -18
22 -25 0 -29 103 -38 114 -10 3 9 6 82 6 162 0 81 3 198 7 260 l6 112 54 0 53
0 0 60 c0 53 -2 60 -20 60 -11 0 -20 7 -20 15 0 12 -15 15 -78 15 -44 0 -119
3 -168 6 -49 4 -92 3 -96 -2z"/>
<path d="M3657 1703 c-4 -3 -7 -151 -7 -329 0 -313 1 -322 20 -327 11 -3 20
-14 20 -24 0 -18 8 -19 123 -18 196 2 177 -4 177 61 0 47 -3 57 -20 61 -11 3
-20 11 -20 18 0 16 -32 25 -92 25 l-48 0 0 183 c0 246 -7 317 -31 317 -12 0
-19 7 -19 20 0 17 -7 20 -48 20 -27 0 -52 -3 -55 -7z"/>
<path d="M4037 1703 c-3 -5 -5 -154 -6 -331 -2 -312 -1 -324 18 -329 10 -3 21
-13 24 -24 4 -16 14 -19 60 -19 l55 0 7 128 c4 70 10 133 14 140 5 9 24 -16
56 -70 113 -194 116 -198 193 -198 32 0 61 3 65 6 7 7 -37 90 -139 270 -35 61
-64 116 -64 122 0 7 22 43 49 80 61 84 111 166 111 181 0 6 -12 11 -26 11 -21
0 -24 4 -19 20 6 18 2 20 -54 20 l-61 0 -57 -87 -58 -87 -9 67 c-7 53 -13 67
-26 67 -10 0 -20 9 -23 20 -4 17 -14 20 -55 20 -28 0 -53 -3 -55 -7z"/>
<path d="M1075 1691 c-16 -7 -31 -49 -77 -212 -31 -112 -60 -217 -64 -234 -3
-16 -15 -59 -25 -94 -24 -79 -24 -98 0 -106 10 -3 21 -15 24 -25 4 -16 14 -20
49 -20 67 0 86 9 99 45 12 31 16 34 66 37 52 3 54 2 90 -40 36 -43 37 -43 97
-40 54 3 61 5 60 23 -2 37 -54 249 -107 440 -44 157 -57 192 -75 200 -12 5
-22 15 -22 22 0 15 -82 17 -115 4z m94 -403 c1 -12 -6 -18 -19 -18 -17 0 -19
5 -14 28 11 52 16 59 24 32 5 -14 8 -33 9 -42z"/>
<path d="M3305 1691 c-21 -9 -44 -80 -132 -411 -58 -218 -59 -223 -44 -228 7
-2 16 -15 21 -28 8 -21 16 -24 57 -24 73 0 92 8 101 44 8 29 12 31 63 37 52 6
55 5 87 -29 17 -20 32 -39 32 -44 0 -14 117 -9 129 5 6 8 9 16 7 18 -2 2 -18
63 -34 134 -31 135 -115 443 -132 483 -5 12 -16 22 -25 22 -8 0 -15 7 -15 15
0 11 -12 15 -47 14 -27 0 -57 -4 -68 -8z m85 -350 c0 -5 3 -23 6 -40 6 -27 4
-31 -16 -31 -18 0 -21 4 -16 23 3 12 6 30 6 40 0 9 5 17 10 17 6 0 10 -4 10
-9z"/>
</g>
</svg>
