<svg version="1.1" id="Layer_1" xmlns="http://www.w3.org/2000/svg" xmlns:xlink="http://www.w3.org/1999/xlink" x="0px" y="0px"
	 width="100%" viewBox="0 0 496 496" enable-background="new 0 0 496 496" xml:space="preserve">
<path fill="#000000" opacity="1.000000" stroke="none" 
	d="
M81.000000,1.000000 
	C81.444443,1.000000 81.888893,1.000000 83.014023,1.135177 
	C105.894989,5.388666 128.078781,9.598436 150.299118,13.605599 
	C192.139938,21.151073 234.005081,28.561626 275.854065,36.062019 
	C317.704712,43.562714 359.551971,51.082497 401.393158,58.635761 
	C433.268219,64.389915 465.131500,70.209518 497.000000,76.000000 
	C497.000000,85.020897 497.000000,94.041786 496.919830,103.900925 
	C492.355774,129.064240 487.802094,153.376694 483.404419,177.717346 
	C476.818176,214.171371 470.337280,250.644470 463.819397,287.110840 
	C457.301361,323.578064 450.835083,360.054657 444.267975,396.513031 
	C438.232758,430.018433 432.093445,463.505096 426.000000,497.000000 
	C416.645782,497.000000 407.291534,497.000000 397.130737,496.841980 
	C394.877045,496.294434 393.450134,495.789764 391.979858,495.532806 
	C372.021942,492.044495 352.039551,488.693268 332.099243,485.107605 
	C284.841522,476.609680 237.613449,467.946838 190.354202,459.457489 
	C131.963547,448.968506 73.548309,438.616272 15.155517,428.139038 
	C1.387282,425.668640 0.400891,423.841492 2.896169,410.173340 
	C11.188963,364.748627 19.393162,319.307648 27.541876,273.856842 
	C35.719810,228.243042 43.747448,182.602280 51.920944,136.987671 
	C59.418430,95.145691 67.083939,53.333702 74.492386,11.476104 
	C75.304939,6.885164 76.760178,3.212265 81.000000,1.000000 
M168.293808,216.747787 
	C197.013611,196.793259 225.693832,176.781158 254.504288,156.958389 
	C258.031128,154.531784 258.094360,152.676758 255.781616,149.411469 
	C246.927338,136.910446 238.321732,124.233643 229.553635,111.671089 
	C225.436142,105.771721 225.362885,105.819710 219.494873,109.893265 
	C197.747040,124.990463 175.992981,140.078705 154.256500,155.192230 
	C144.961807,161.654892 135.691330,168.152664 126.440292,174.677628 
	C124.323463,176.170654 122.298492,177.850174 124.348511,180.806702 
	C133.931732,194.627594 143.527252,208.439957 153.116470,222.256699 
	C154.797089,224.678223 156.764755,224.790436 159.082443,223.131897 
	C161.926071,221.096985 164.831818,219.148926 168.293808,216.747787 
M360.594849,336.040222 
	C364.701508,333.196045 368.719727,330.211456 372.942932,327.552429 
	C376.282928,325.449402 376.411957,323.466125 374.150208,320.301758 
	C365.146149,307.704376 356.383667,294.934601 347.492676,282.256042 
	C343.778839,276.960083 343.393890,276.830994 338.058411,280.557800 
	C307.076965,302.198303 276.182465,323.963684 245.123184,345.491608 
	C241.128082,348.260712 241.376053,350.436005 243.867599,353.919434 
	C252.876007,366.514160 261.823425,379.157593 270.502167,391.980042 
	C273.218964,395.994019 275.473938,395.657288 278.982300,393.187592 
	C305.942657,374.209106 332.993927,355.359833 360.594849,336.040222 
M207.249634,266.293427 
	C215.984558,290.238525 241.923386,302.625610 265.698212,294.205566 
	C289.868164,285.645599 302.279358,259.801300 293.874451,235.533142 
	C285.877869,212.444016 259.349365,199.262543 236.332977,206.941971 
	C211.899704,215.094147 198.922638,241.023773 207.249634,266.293427 
M180.103363,409.902588 
	C180.280930,409.090363 180.455139,408.277374 180.636765,407.466064 
	C181.024277,405.735107 180.988235,403.073944 183.328690,403.432373 
	C186.090775,403.855377 184.573837,406.452423 184.321945,408.017517 
	C183.239227,414.745514 182.020203,421.454315 180.695984,428.139465 
	C180.054504,431.378021 180.855759,433.144440 184.382797,433.733917 
	C193.070267,435.185974 201.710693,436.917419 210.379547,438.483826 
	C213.509705,439.049438 215.294662,438.088104 215.819839,434.505554 
	C216.783096,427.934845 218.308960,421.448639 219.492798,414.907715 
	C220.717926,408.138672 220.366730,407.684845 213.505661,406.476593 
	C201.889374,404.431091 190.261032,402.453705 178.650040,400.378937 
	C169.653687,398.771332 160.685944,397.002319 151.683624,395.430267 
	C149.255188,395.006195 146.539093,394.528107 145.868378,398.187866 
	C144.400574,406.196960 142.828857,414.187531 141.425949,422.207794 
	C140.982269,424.744232 142.184647,426.208710 144.880234,426.675079 
	C153.724442,428.205231 162.538422,429.909363 171.373856,431.491577 
	C174.245316,432.005768 176.202866,431.137634 176.743668,427.884827 
	C177.697296,422.148834 178.835419,416.443512 180.103363,409.902588 
M43.186680,324.396637 
	C42.536545,328.158386 41.911934,331.924835 41.226494,335.680115 
	C40.829586,337.854675 41.453289,339.201935 43.805897,339.613708 
	C51.662472,340.988800 59.518078,342.374512 67.351776,343.872650 
	C70.523773,344.479309 72.060760,343.193542 72.585762,340.178772 
	C74.323135,330.201874 75.977768,320.208130 77.918129,310.270416 
	C78.544739,307.061218 77.680916,305.640411 74.508698,305.082123 
	C67.311996,303.815613 60.080811,302.634491 52.996056,300.883026 
	C48.607533,299.798157 47.144413,301.786346 46.484921,305.378113 
	C45.374889,311.423645 44.357040,317.486084 43.186680,324.396637 
M170.064499,74.288834 
	C178.245605,75.736374 186.446945,77.080803 194.598511,78.678963 
	C198.175247,79.380211 199.805954,78.133026 200.401352,74.649292 
	C201.659927,67.285355 203.102142,59.952850 204.461975,52.606144 
	C205.063263,49.357674 203.866379,47.759029 200.429688,47.190666 
	C190.597031,45.564537 180.802155,43.696823 171.022644,41.770603 
	C168.037720,41.182674 166.622330,42.235798 166.111145,45.079510 
	C164.671173,53.089981 163.211334,61.097092 161.704712,69.095238 
	C161.274521,71.379036 162.340652,72.625900 164.349594,73.167137 
	C165.946945,73.597481 167.613190,73.772095 170.064499,74.288834 
M405.222443,296.396851 
	C404.114258,302.420563 403.260986,308.506470 401.812469,314.447205 
	C400.762665,318.752716 402.223663,320.666779 406.317322,321.397491 
	C413.331268,322.649414 420.322906,324.026886 427.320129,325.371368 
	C430.225830,325.929718 432.147766,325.170288 432.733459,321.934998 
	C434.561798,311.835114 436.501129,301.755432 438.361725,291.661316 
	C438.892517,288.781555 436.996216,287.841919 434.674805,287.400879 
	C429.954041,286.503967 425.234344,285.594788 420.496582,284.795197 
	C405.469269,282.259064 408.138245,280.788483 405.222443,296.396851 
M141.388458,400.266968 
	C142.825302,395.311554 140.945297,393.123657 135.823212,392.432800 
	C127.270149,391.279236 118.724503,389.846741 110.319328,387.908844 
	C105.661430,386.834900 104.233154,388.790222 103.577156,392.630737 
	C102.402077,399.510284 101.542572,406.464447 99.937721,413.242157 
	C98.966248,417.344910 100.509331,418.787506 104.040016,419.419952 
	C113.361107,421.089600 122.681618,422.762451 131.999924,424.447540 
	C135.462860,425.073730 137.212051,423.856628 137.736374,420.166962 
	C138.646591,413.761597 139.993408,407.418213 141.388458,400.266968 
M416.878204,367.674103 
	C410.329987,366.544525 403.774933,365.452881 397.236816,364.267517 
	C394.449585,363.762177 392.832855,364.485840 392.331055,367.552887 
	C390.721893,377.387390 389.076874,387.219788 387.176147,397.000641 
	C386.527893,400.336365 387.739655,401.550629 390.756073,402.064026 
	C397.632629,403.234375 404.480286,404.573608 411.352203,405.772308 
	C417.222809,406.796356 417.612091,406.445404 418.686096,400.403107 
	C420.110168,392.391113 421.540436,384.379700 423.052155,376.383972 
	C424.285706,369.859497 423.957123,369.264465 416.878204,367.674103 
M344.665680,73.173103 
	C340.272949,72.323433 335.864441,71.546661 331.492249,70.601967 
	C327.716431,69.786133 325.932892,71.306358 325.323029,75.009911 
	C324.165863,82.037437 322.813538,89.032959 321.527496,96.039070 
	C320.927490,99.307907 321.645905,101.359985 325.483124,101.967621 
	C334.973480,103.470444 344.430420,105.208580 353.858398,107.067085 
	C356.796448,107.646263 357.960510,106.280594 358.409424,103.911896 
	C359.889740,96.100845 361.192474,88.256187 362.666229,80.443832 
	C363.218994,77.513527 362.017670,76.067993 359.247955,75.602692 
	C354.671967,74.833954 350.096710,74.060883 344.665680,73.173103 
M60.552818,227.094025 
	C59.065578,235.751190 57.699760,244.431839 56.031616,253.054001 
	C55.360149,256.524628 56.652611,258.005768 59.855370,258.584808 
	C66.706161,259.823425 73.560455,261.055511 80.377274,262.464630 
	C84.786438,263.376038 86.881828,261.626373 87.567841,257.327576 
	C88.872749,249.150375 90.357063,241.001740 91.774658,232.842621 
	C92.876297,226.502060 92.839508,226.376602 86.372482,225.063293 
	C80.363838,223.843063 74.316673,222.811569 68.311844,221.573868 
	C64.187241,220.723709 61.453457,221.808609 60.552818,227.094025 
M307.545746,423.416901 
	C304.541290,423.057800 303.423645,424.773010 302.939392,427.412994 
	C301.531067,435.090088 300.023163,442.748810 298.592468,450.421875 
	C298.142975,452.832764 299.213531,454.220001 301.638458,454.645782 
	C311.127563,456.311829 320.625702,457.931946 330.091156,459.724091 
	C333.410217,460.352570 334.553558,458.888763 335.040192,455.916443 
	C336.219910,448.710449 337.301666,441.470856 338.942749,434.364838 
	C339.873657,430.334015 338.568298,428.940735 334.825867,428.312347 
	C325.982178,426.827423 317.179657,425.097382 307.545746,423.416901 
M435.473785,203.756882 
	C439.556244,204.533340 443.714050,205.040939 447.700958,206.158325 
	C452.096313,207.390182 453.893341,205.606552 454.579803,201.556702 
	C456.051147,192.876129 457.509369,184.190567 459.198181,175.551071 
	C459.824249,172.348328 458.819550,170.866257 455.703064,170.316055 
	C448.338562,169.015930 440.933716,167.854904 433.666443,166.127625 
	C429.517212,165.141434 428.204010,166.889999 427.613739,170.374832 
	C426.531982,176.761505 425.367310,183.134399 424.319489,189.526535 
	C422.339874,201.603256 422.364105,201.607224 435.473785,203.756882 
M321.630554,73.742111 
	C321.836823,71.398224 322.339722,69.005585 318.905304,68.408699 
	C309.579712,66.787941 300.259644,65.128517 290.964722,63.342148 
	C287.498993,62.676079 286.140015,64.240112 285.600616,67.352844 
	C284.295990,74.881996 282.889404,82.393425 281.553253,89.917206 
	C281.167572,92.088997 281.472382,94.063324 284.064484,94.536003 
	C293.704468,96.293900 303.361450,97.958160 313.008118,99.679604 
	C316.319092,100.270447 317.270416,98.607567 317.734039,95.587860 
	C318.816956,88.535034 320.275116,81.539825 321.630554,73.742111 
M242.997284,444.241577 
	C245.615005,444.696472 248.222244,445.229858 250.853699,445.582001 
	C253.053162,445.876373 254.966339,445.237915 255.422867,442.786072 
	C256.881653,434.951233 258.274597,427.103119 259.584381,419.242035 
	C260.022766,416.610809 259.137848,414.762909 256.121246,414.243103 
	C247.119797,412.692017 238.131180,411.060669 229.158966,409.348358 
	C225.514816,408.652924 224.015106,410.254456 223.458862,413.653992 
	C222.304916,420.706482 221.073013,427.749756 219.676392,434.757568 
	C218.925308,438.526184 220.063416,440.295502 224.004868,440.825623 
	C230.091980,441.644196 236.117645,442.919739 242.997284,444.241577 
M103.157356,105.483131 
	C97.941109,104.553589 92.716843,103.666237 87.512184,102.675804 
	C85.094788,102.215775 83.021301,102.473358 82.499847,105.246506 
	C80.725037,114.685188 79.038979,124.141335 77.422340,133.608459 
	C76.977463,136.213715 77.856979,138.114136 80.846405,138.640884 
	C88.346481,139.962494 95.846031,141.302841 103.305382,142.832687 
	C106.728363,143.534714 108.160072,142.329620 108.706154,138.982101 
	C109.825150,132.122513 111.303322,125.322227 112.479179,118.471016 
	C114.446686,107.007225 115.290352,107.841599 103.157356,105.483131 
M96.101845,208.849426 
	C97.226280,203.000259 98.400841,197.160095 99.452385,191.297867 
	C99.925201,188.661972 99.704079,186.136429 96.386475,185.523102 
	C88.733727,184.108337 81.073387,182.726730 73.392654,181.475830 
	C70.899803,181.069839 68.830833,181.653809 68.292717,184.773682 
	C66.717308,193.907501 65.050728,203.026398 63.321251,212.132416 
	C62.665756,215.583694 64.319016,217.016144 67.409508,217.524612 
	C72.146309,218.303986 76.881981,219.092194 81.609680,219.924622 
	C93.075310,221.943359 93.852539,225.416763 96.101845,208.849426 
M419.635071,280.668884 
	C424.361237,281.548950 429.115997,282.300934 433.805115,283.347107 
	C438.015533,284.286469 439.999481,282.701691 440.663422,278.542297 
	C441.969330,270.361206 443.193481,262.145752 445.048492,254.081894 
	C446.095703,249.529434 444.419678,248.014877 440.407318,247.352570 
	C433.864502,246.272583 427.296722,245.247269 420.844879,243.745956 
	C416.334076,242.696335 414.297729,244.249496 413.607025,248.574432 
	C412.561981,255.118195 411.315155,261.629639 410.261780,268.172119 
	C408.640198,278.243652 408.678925,278.249878 419.635071,280.668884 
M283.769165,451.581177 
	C285.077972,451.792572 286.424622,451.873108 287.688690,452.239136 
	C292.063843,453.505890 294.533447,452.322845 295.269073,447.454193 
	C296.357941,440.247833 297.847717,433.099701 299.272217,425.947754 
	C299.758270,423.507202 298.963806,421.950134 296.584106,421.507874 
	C287.127502,419.750610 277.658234,418.058868 268.179840,416.422882 
	C265.623444,415.981689 263.999268,417.251495 263.526123,419.785431 
	C262.125641,427.285828 260.727844,434.787537 259.437256,442.307312 
	C258.921448,445.312958 259.724518,447.323090 263.343079,447.857849 
	C269.900940,448.827026 276.393341,450.239014 283.769165,451.581177 
M466.512024,134.679428 
	C466.463104,132.020813 464.621338,131.569199 462.491058,131.204224 
	C455.117584,129.940933 447.709015,128.804291 440.422577,127.142586 
	C436.568604,126.263664 435.271423,127.747887 434.701355,131.093307 
	C433.250153,139.609818 431.909149,148.151520 430.163055,156.608582 
	C429.343292,160.579178 430.775543,162.049332 434.441559,162.648590 
	C441.330414,163.774628 448.195770,165.060394 455.042511,166.422287 
	C459.239105,167.257050 461.112183,165.737701 461.761963,161.467651 
	C463.086304,152.764694 464.842896,144.127518 466.512024,134.679428 
M282.084351,64.522972 
	C282.398010,61.937340 280.655670,61.596378 278.702362,61.248688 
	C270.034027,59.705704 261.377228,58.096943 252.721817,56.482174 
	C249.388565,55.860313 247.187515,56.875225 246.550659,60.439293 
	C245.206131,67.963646 243.807816,75.478539 242.497482,83.008781 
	C242.069641,85.467491 242.809311,87.176765 245.632339,87.670212 
	C254.634842,89.243790 263.607819,90.986710 272.611420,92.553551 
	C275.433075,93.044579 277.295807,92.191010 277.804474,88.823784 
	C278.994751,80.944939 280.528961,73.118042 282.084351,64.522972 
M400.592682,360.770538 
	C406.950928,362.010345 413.302979,363.283356 419.669983,364.476562 
	C423.101471,365.119629 425.309723,364.291962 425.945740,360.218811 
	C427.251251,351.857910 429.009766,343.568329 430.543396,335.242279 
	C431.206696,331.641052 429.851959,329.642212 426.034790,329.030884 
	C418.820557,327.875549 411.626038,326.552979 404.480804,325.030304 
	C401.185516,324.328003 399.877655,325.522125 399.358215,328.586823 
	C397.970703,336.773438 396.732666,345.000305 394.906616,353.091919 
	C393.852844,357.761597 394.966736,360.184174 400.592682,360.770538 
M115.530510,100.740501 
	C117.169350,91.918610 118.798897,83.094971 120.451683,74.275688 
	C121.096771,70.833504 120.411720,68.552666 116.351738,67.864372 
	C108.981133,66.614838 101.681915,64.948967 94.338707,63.530388 
	C91.636925,63.008450 89.878136,63.935188 89.350861,66.930870 
	C87.794991,75.770386 86.075226,84.580978 84.503487,93.417809 
	C84.012283,96.179520 84.582405,98.227539 88.010406,98.781715 
	C95.721420,100.028297 103.392578,101.527283 111.065765,102.997574 
	C112.871376,103.343559 114.383194,103.317940 115.530510,100.740501 
M101.222351,146.332520 
	C94.539017,145.100098 87.851845,143.888031 81.174011,142.626511 
	C77.919899,142.011795 75.765007,142.621811 75.132576,146.468918 
	C73.708977,155.128784 71.942215,163.731720 70.439873,172.379501 
	C70.052887,174.607101 70.350433,176.927750 73.160042,177.453720 
	C80.979706,178.917572 88.815247,180.302994 96.663910,181.602234 
	C99.651894,182.096863 101.203148,180.691742 101.736046,177.597473 
	C103.197708,169.110352 104.901985,160.665161 106.492966,152.200134 
	C107.164879,148.625092 105.364075,146.917953 101.222351,146.332520 
M380.273926,79.400154 
	C377.488922,78.934143 374.652557,78.664375 371.931854,77.952545 
	C368.516785,77.059021 366.933105,78.310509 366.357025,81.630432 
	C365.079407,88.993423 363.822113,96.364998 362.282288,103.675301 
	C361.504486,107.368042 362.931519,108.844933 366.354401,109.413414 
	C374.383667,110.746964 382.453430,111.938049 390.382874,113.733917 
	C395.316498,114.851295 396.949432,112.906517 397.602417,108.504929 
	C398.601166,101.772148 399.607788,95.018394 401.134369,88.394135 
	C402.092072,84.238380 400.361481,82.955856 396.820465,82.360931 
	C391.578369,81.480194 386.361389,80.449722 380.273926,79.400154 
M242.157120,62.987724 
	C243.544922,54.644947 243.533691,54.712128 235.618088,53.388371 
	C228.738480,52.237873 221.881195,50.949093 215.027603,49.649864 
	C211.238083,48.931488 208.657532,49.384659 208.009445,54.099899 
	C206.991745,61.504089 205.512451,68.850639 204.036835,76.182999 
	C203.505249,78.824577 203.926498,80.254341 206.845337,80.753899 
	C215.686768,82.267052 224.492249,83.989182 233.326599,85.545464 
	C236.478622,86.100731 238.283981,84.912422 238.783783,81.448639 
	C239.636826,75.536774 240.868515,69.679543 242.157120,62.987724 
M53.262070,268.629944 
	C51.946716,275.973206 50.662720,283.322235 49.303280,290.657349 
	C48.582176,294.548187 50.129417,296.655609 54.005753,297.297394 
	C60.878132,298.435242 67.765137,299.518768 74.586952,300.913910 
	C78.111115,301.634644 79.690536,300.014191 80.252357,297.041718 
	C81.822281,288.735565 83.143852,280.382294 84.726089,272.078644 
	C85.421967,268.426666 83.935577,266.946075 80.482773,266.370178 
	C73.777824,265.251740 67.081573,264.032104 60.445847,262.564453 
	C55.797138,261.536285 53.459671,263.033081 53.262070,268.629944 
M438.373413,208.339096 
	C433.961365,207.581146 429.528320,206.925629 425.145264,206.026367 
	C422.568329,205.497650 421.315857,206.565155 420.896088,208.888184 
	C419.305328,217.691986 417.770233,226.505829 416.214691,235.315994 
	C415.841156,237.431610 416.520203,239.024612 418.733307,239.435532 
	C426.554932,240.887833 434.386658,242.290344 442.231110,243.613388 
	C445.462036,244.158295 447.143860,242.632950 447.661652,239.363037 
	C448.516541,233.964447 449.705780,228.619324 450.590576,223.224823 
	C452.541656,211.329361 452.500061,211.322525 440.687927,208.741470 
	C440.201416,208.635147 439.714600,208.529953 438.373413,208.339096 
M410.159790,117.155647 
	C416.031952,118.227654 421.911804,119.259712 427.773438,120.386459 
	C431.362762,121.076424 433.301392,120.208000 433.820129,116.086349 
	C434.687897,109.191742 436.105072,102.362198 437.414368,95.528908 
	C438.131104,91.788200 437.290192,89.556129 433.051575,88.902115 
	C425.352356,87.714149 417.700958,86.200836 410.052856,84.704559 
	C407.142761,84.135223 405.665161,85.127197 405.148193,88.028870 
	C403.955902,94.720718 402.568604,101.378342 401.417053,108.076790 
	C400.132233,115.550690 400.207703,115.563362 407.859070,116.703293 
	C408.351959,116.776726 408.843353,116.860138 410.159790,117.155647 
M367.417328,434.295227 
	C361.047943,433.105347 354.664032,431.986847 348.315399,430.695007 
	C345.209106,430.062927 343.648438,431.016418 343.123566,434.238098 
	C341.868317,441.942657 340.497559,449.631439 338.985016,457.289398 
	C338.428833,460.105469 339.409210,461.288055 342.078217,461.763733 
	C350.418945,463.250214 358.736847,464.864197 367.073334,466.375061 
	C369.797974,466.868896 371.122192,465.314423 371.538239,462.854370 
	C372.618469,456.467651 373.383179,450.015991 374.741333,443.690613 
	C376.690216,434.614166 374.652435,435.847351 367.417328,434.295227 
M140.395462,68.830620 
	C144.626892,69.623474 148.881882,70.310349 153.081818,71.244766 
	C156.105927,71.917595 157.317932,70.724709 157.805206,67.847450 
	C159.103500,60.181164 160.352097,52.493698 162.073730,44.917656 
	C162.848999,41.506100 161.496063,40.169960 158.703018,39.629807 
	C151.064590,38.152603 143.399750,36.810333 135.738495,35.453457 
	C132.326523,34.849167 130.460983,36.173157 129.964233,39.771954 
	C129.399033,43.866600 128.248611,47.880722 127.688896,51.975819 
	C125.396973,68.744499 121.283455,65.188087 140.395462,68.830620 
M95.054878,416.313385 
	C97.286819,407.958313 98.206306,399.346130 100.028633,390.921051 
	C100.835663,387.189941 99.309998,386.023071 96.272125,385.459106 
	C89.081757,384.124237 81.886909,382.813354 74.691666,381.504913 
	C71.393372,380.905121 69.166267,381.915497 68.524055,385.506104 
	C67.207024,392.869781 65.777565,400.213684 64.504417,407.584717 
	C64.161217,409.571777 64.027969,411.972198 66.666016,412.459869 
	C75.913177,414.169220 85.011848,416.877533 95.054878,416.313385 
M441.037140,98.337830 
	C440.006531,104.400848 439.309937,110.546326 437.839844,116.500839 
	C436.658752,121.284821 438.669739,122.864403 442.823303,123.537720 
	C449.388336,124.601959 455.998016,125.527092 462.455292,127.069939 
	C466.577148,128.054779 468.007660,126.410896 468.569092,122.863480 
	C469.764130,115.312828 470.833618,107.739059 472.216858,100.223038 
	C472.774658,97.192154 471.730499,95.832375 468.920319,95.298218 
	C462.226990,94.025963 455.567017,92.556168 448.845551,91.460777 
	C442.222839,90.381493 442.138458,90.587166 441.037140,98.337830 
M31.376799,388.641693 
	C30.685522,393.052643 30.084198,397.480286 29.271173,401.868683 
	C28.733633,404.770111 29.707527,406.177795 32.649151,406.670319 
	C39.996265,407.900513 47.344292,409.164062 54.629879,410.707306 
	C58.548275,411.537323 60.029831,410.013153 60.617443,406.369781 
	C61.724697,399.504456 62.957493,392.653412 64.383003,385.847717 
	C65.176765,382.058197 63.808342,380.144775 60.150265,379.548279 
	C52.626644,378.321381 45.090710,377.162323 37.588963,375.813354 
	C35.113945,375.368317 33.766758,376.013428 33.306770,378.523682 
	C32.739082,381.621643 32.079659,384.702759 31.376799,388.641693 
M377.187103,455.351715 
	C376.634979,458.284424 376.048431,461.211243 375.541687,464.151764 
	C375.141327,466.474792 375.996552,468.073425 378.438995,468.521576 
	C385.933594,469.896729 393.424988,471.292511 400.934387,472.582581 
	C404.049927,473.117798 406.014679,471.845428 406.608093,468.558685 
	C407.873077,461.552856 409.266357,454.570251 410.551697,447.567963 
	C411.121826,444.461670 410.108002,442.565399 406.656311,441.988403 
	C398.976624,440.704681 391.340332,439.161255 383.686951,437.720306 
	C381.223846,437.256500 379.854553,438.376953 379.463257,440.738892 
	C378.704865,445.317261 378.009155,449.906036 377.187103,455.351715 
M126.371414,35.824322 
	C126.196625,34.754566 125.638435,33.851265 124.602272,33.621231 
	C116.021690,31.716291 107.412292,29.963139 98.650917,29.078709 
	C96.674545,28.879198 95.899406,30.177696 95.611473,31.692146 
	C94.126053,39.505260 92.771996,47.343254 91.315651,55.162048 
	C90.850861,57.657402 91.937241,58.959473 94.265823,59.410206 
	C101.918167,60.891438 109.592331,62.265823 117.222832,63.851063 
	C120.213234,64.472313 121.356796,63.554253 121.853180,60.527084 
	C123.167343,52.512707 124.819511,44.553757 126.371414,35.824322 
M55.608269,374.667755 
	C56.750473,374.884308 57.891106,375.109558 59.035141,375.315948 
	C65.165558,376.421814 66.368675,375.607269 67.455482,369.520660 
	C68.388206,364.296936 69.048851,359.011780 70.259148,353.854584 
	C71.182915,349.918274 69.579880,348.193024 66.060646,347.529999 
	C58.885937,346.178314 51.703831,344.865601 44.521709,343.553619 
	C41.703579,343.038788 39.669788,343.584473 39.108257,346.950195 
	C37.988789,353.660004 36.620064,360.327881 35.450298,367.029816 
	C34.970795,369.777039 36.069492,371.392548 39.048336,371.839691 
	C44.299431,372.627869 49.512699,373.668060 55.608269,374.667755 
M390.785980,406.321167 
	C387.028564,405.089172 385.267181,406.643494 384.671234,410.382446 
	C383.733124,416.268280 382.519562,422.109772 381.531464,427.988342 
	C381.126862,430.395599 381.191467,432.904938 384.283264,433.489624 
	C392.259369,434.998077 400.274384,436.300293 408.254578,437.788361 
	C411.097809,438.318573 412.175354,437.023956 412.604126,434.459778 
	C413.669434,428.088654 414.676971,421.700470 416.026703,415.387329 
	C416.716125,412.162872 415.780670,410.780884 412.599518,410.247589 
	C405.574890,409.070068 398.585052,407.685028 390.785980,406.321167 
z"/>
</svg>